<svg xmlns="http://www.w3.org/2000/svg" width="250" height="350" viewBox="0 0 6571.95 7554.72" shape-rendering="geometricPrecision" text-rendering="geometricPrecision" image-rendering="optimizeQuality" fill-rule="evenodd" clip-rule="evenodd"><defs><style>.fil0{fill:#ff6b0891;fill-rule:nonzero}</style></defs><g id="Слой_x0020_1"><g id="_1962987497008"><path class="fil0" d="M915.02 3103.93c399.1 1070.92 553.87 2197.29 530.86 3336.14-2.59 119.96 183.81 119.96 185.96 0 22.49-1162.16-227.6-2278.95-675.4-3347.35-10.54-24.87-51.07-15.07-41.43 11.22z"/><path class="fil0" d="M1500.07 6466.34c-138.22-36.22-283.58 66.89-302.44 208.08-20.71 155.68 111.28 284.54 259.75 294.27 67.04 4.53 67.85-102.45 0-104.89-95.32-3.94-182.77-92.72-162.65-191.82 19.38-92.28 108.98-143.65 197.25-145.5 33.78-.96 42.17-50.85 8.09-60.14z"/><path class="fil0" d="M1454.79 6954.51c1077.9 634.42 2683.53 880.43 3777.99 165.1 71.7-46.77 7.79-158.64-67.63-115.73-1185.76 679.69-2487.63 373.99-3694.92-85.89l-15.45 36.52z"/><path class="fil0" d="M5209.69 7015.17c165.55-4.31 297.24-171.86 286.26-332.5-12.33-179.8-188.04-304.22-358.78-296.42-76.46 3.86-76.24 124.04 0 118.63 117.29-7.35 228.87 64.43 250.91 185.07 24.58 133.33-70.75 230.5-184.7 277.49-23.53 9.73-23.23 48.26 6.31 47.74z"/><path class="fil0" d="M5148.67 6443.4c-103.93-1068.91-92.95-2120.16 125.97-3175.33 19.9-97.18-129.62-138.6-149.28-41.06-212.62 1064.98-253 2156.39-29.32 3223.15 5.79 29.39 55.53 23.46 52.63-6.76z"/><path class="fil0" d="M948.28 3023.46c-426.85 410.67 1189.77 585.34 1399.26 595.58 543.4 26.88 1087.33-27.24 1626.57-92.71 418.46-50.19 842.49-80.47 1208.1-309.04 88.79-55.6 6.75-197.32-82.26-140.6-558.62 354.03-1411.29 351.05-2056.61 389.14-308.22 18.12-618.01 22.5-925.49-2.89-70.97-5.87-1346.63-158.27-1145.45-420.98l-24.13-18.49z"/><path class="fil0" d="M892.24 3065.4c-208.45-1.41-283.58-279.8-84.33-365.68 46.4-20.49 5.79-87.9-39.79-68.37-116.77 50.32-191.46 186.48-151.37 310.97 38.23 119.74 161.83 178.31 279.94 157.37l-4.45-34.29z"/><path class="fil0" d="M829.43 2640.03c-131.99-166.43-249.35-384.76-193.31-603.83 57.39-225.61 325.52-388.25 521.66-206.6 50.32 46.78 126.27-29.25 75.42-75.19-196.13-174.82-492.03-115.15-619.57 112.24-158.72 282.76-18.63 590.91 179.36 809.6 22.57 24.95 56.04-11.28 36.45-36.22z"/><path class="fil0" d="M1259.7 1825.67c4.68-156.79 235.69-213.8 296.72-62.51 25.61 62.95 114.92 26.73 86.93-36.67-42.17-97.69-151.14-161.61-257.45-140.97-121 23.31-171.26 128.43-166.29 240.15 1.34 25.46 39.27 25.98 40.09 0zM1697.02 1710.46c-8.61-267.55 108.69-544.59 381.57-635.83 330.49-109.79 669.9 149.96 703.45 484.91 6.53 68.97 115.21 68.97 107.64 0-38.53-352.03-353.28-654.69-723.35-595.66-333.91 53.3-591.58 420.32-493.96 750.07l24.65-3.49z"/><path class="fil0" d="M2882.34 1540.01c79.58-177.79 332.35-141.57 341.18 58.72 2.67 60.95 94.88 61.99 95.1 0 .29-124.12-95.1-240.82-221.01-255-118.4-13.21-224.49 67.41-258.26 178.31-7.57 24.34 31.99 42.31 42.98 17.96z"/><path class="fil0" d="M3228.79 1568.89c106.08-224.64 426.11-192.94 451.72 66.88 6.09 59.02 95.39 61.47 94.06 0-8.61-341.26-495-420.98-595.29-87.44-8.61 28.8 36.15 48.76 49.51 20.56z"/><path class="fil0" d="M3744.96 1682.25c47.96-289.22 287.29-554.83 601.08-525.07 295.09 28.36 504.65 343.78 429.23 625.51-12.1 45.35 57.31 64.43 70.67 19.52 97.18-330.49-126.2-702.12-479.26-737.82-351.43-35.63-648.15 274.53-662.33 611.85l40.61 6.01z"/><path class="fil0" d="M4803.03 1874c62.58-47.89 145.58 12.32 155.52 82.1 11.51 84.85-57.38 161.61-110.24 218.7-34.29 37.49 19.08 91.23 55.75 55.75 85.67-82.7 181.8-225.3 104.01-343.71-49.52-75.72-160.05-115.44-231.02-46.47l25.98 33.63z"/><path class="fil0" d="M4835.47 2275.83c465.9 51.37 664.63 638.28 244.31 904.33-61.54 38.6-3.64 137.63 57.09 97.62 470.88-310.01 299.39-1076.19-301.39-1041.89-25.9 1.4-24.87 37.11 0 39.94zM1530.44 2835.42c-4.97 84.93 46.62 152.85 124.2 184.55 100.29 41.57 209.49 9.36 307.18-22.28 53.9-17.74 30.06-104.15-23.6-85.66-113.88 39.71-323.15 92.94-350.92-84.41-4.97-33.7-55.01-23.01-56.86 7.8z"/><path class="fil0" d="M1969.91 2883.82c91.39 213.35 404.37 263.23 554.17 83.95 31.18-37.19-22.27-91.23-53.45-53.67-122.04 145.87-376.29 119.59-459.07-54.71-13.36-28.36-53.67-3.5-41.65 24.42zM3415.5 2316.44c66.29-109.43 200.66-155.74 320.33-112.84 51.3 18.55 75.94-66.44 22.78-82.55-154.25-46.84-317.95 31.85-378.67 180.17l35.56 15.22z"/><path class="fil0" d="M3737.38 2198.85l-.81 37.49h22.26l-.74-37.49z"/><path class="fil0" d="M3797.88 2200.11c70.97-144.91 223.89-231.84 385.5-208.83 64.66 9.13 93.77-88.93 27.47-100.14-203.7-33.26-406.66 73.63-492.63 262.12-24.34 53.3 53.45 100.59 79.66 46.84zM3399.54 2727.03c62.36 206.53 327.08 274.96 488.69 138.3 35.11-29.92-15.74-80.62-51.07-50.85-121.74 104.52-335.76 47.36-396.19-99.25-10.25-24.21-49.51-15.51-41.43 11.8z"/><path class="fil0" d="M3842.12 2884.71c58.65 85 172.08 110.84 261.39 57.61 34-20.42 2.59-74.54-31.7-53.67-62.58 38.68-143.8 21.97-189.6-34.59-17.81-23.01-56.35 6.75-40.09 30.66zM1609.58 2188.38c-14.7-104.45 114.4-207.49 212.61-159.97 40.38 19.97 74.9-42.17 34.59-59.69-144.02-63.02-322.4 69.78-280.46 229.09l33.26-9.43z"/><path class="fil0" d="M1883.5 2052.23c84.56-201.1 365.61-212.91 433.91 7.87 13.15 43.35 82.26 24.34 67.63-18.63-88.26-261.68-466.72-283.29-541.62 0-6.83 26.42 30.13 34.66 40.08 10.76zM1669.26 6651.41c937.82 640.58 2605 777.77 3422.1-143.12 37.19-41.42-23.84-102.89-61.32-61.46-845.9 936.47-2349.62 687.94-3347.12 180.61l-13.66 23.97z"/><path class="fil0" d="M1475.51 3507.32c264.72 1008.78 394.86 2040.5 384.39 3083.58-.53 59.53 92.5 59.53 92.5 0-1.34-1053.33-152.7-2080.67-459.89-3087.97l-17 4.38zM1974.36 3590.31c250.4 1065.43 382.62 2129.52 313.2 3224.26-3.94 61.84 93.02 61.84 96.65 0 62.88-1090.96-36.67-2191.57-376.59-3233.46l-33.26 9.2zM4641.12 3436.13c-292.79 983.84-172.3 2170.79-18.34 3170.37 9.21 58.65 98.74 33.63 89.3-25.02-87.44-545.33-138.52-1095.71-140.89-1648.32-2.3-500.57 79.88-997.57 76.76-1496.14l-6.83-.9zM3991.93 3475.11c-95.09 1119.17-60.5 2250.07 178.09 3350.46 14.4 66.51 112.61 37.71 101.33-27.69-191.97-1103.5-300.65-2202.63-251.95-3322.77h-27.47zM3325.67 3589.35c-3.93 1132.76 118.93 2286.6 254.33 3410.82 7.86 64.74 110.24 66.73 103.4 0-119.37-1134.91-191.15-2278.06-323.44-3410.82h-34.3zM2741.14 3626.47c20.19 1124 134.14 2255.35 216.32 3376.45 4.76 65.48 107.12 65.99 102.15 0-86.71-1122.44-144.31-2259.72-292.26-3376.45h-26.2z"/><path class="fil0" d="M1581.51 6306.22c84.63 125.97 191.75 237.77 296.2 346.97l31.99-31.62c-112.1-102.59-207.19-218.25-306.96-331.53l-21.23 16.19zM1579.21 6140.08c83.74 130.44 195.31 247.05 293.82 366.28 21.97 27.39 62.58-12.17 38.97-38.97-101.03-114.25-197.16-241.86-311.12-343.86l-21.67 16.56zM1595.69 5955.01c84.03 118.18 173.12 233.47 263.16 347.79 22.27 28.29 62.87-11.8 40.09-40.08-90.35-110.84-181.73-221.22-277.34-327.75l-25.91 20.05zM1566.37 5733.86c98.74 135.26 199.76 269.56 295.38 407.26 18.04 25.9 55.01-1.56 34.59-26.8-104-129.39-203.48-263.24-304.59-395.45l-25.39 14.99zM1526.28 5537.07c87.97 130.43 184.11 255 286.77 374.51l29.84-29.76c-103.18-115.21-199.54-235.33-290.41-360.34l-26.2 15.59zM1534.67 5400.39c92.95 108.38 187.22 216.33 278.38 326.19l26.43-26.35c-97.4-104.09-191.98-210.98-287.81-316.84l-17 17zM1492.5 5200.7c92.95 145.95 215.51 286.63 329.17 416.54 27.24 30.74 69.18-13.73 44.54-44.47-106.3-133.85-220.77-277.34-345.94-393.07l-27.76 21zM1428.89 4968.27a125749.71 125749.71 0 01367.39 456.55c21.23 26.8 61.32-11.65 38.01-38.16-128.88-145.5-257.23-291.82-385.51-438.44l-19.89 20.05zM1377.51 4734.43c138.83 158.12 276.31 316.84 413.57 476.59 22.72 26.28 62.58-12.77 38.76-38.68a56959.23 56959.23 0 01-427.15-463.45l-25.17 25.54zM1364.45 4562.5c106.6 129.47 224.71 247.13 355.65 351.5 30.88 25.02 65.7-19.52 33.48-43.42-133.55-97.62-256.63-206.96-368.73-328.64l-20.41 20.56zM1297.93 4343.73c123.08 138.23 268.95 260.79 413.27 375.93 25.09 20.05 53.16-15.51 27.17-35.04-148.17-111.87-282.54-237.25-422.09-359.37l-18.34 18.48zM1264.16 4159.19c127.24 142.6 266.06 270.96 411.93 394.04 26.43 22.04 57.31-16.93 29.03-37.12-153.15-110.39-292.27-238.66-422.1-375.93l-18.86 19.01zM1212.78 3924.82c136.22 149.36 275.79 295.46 410.9 445.78 23.31 25.83 62.87-13.66 38.01-38.15-144.61-140.53-285.73-285.59-429.23-427.15l-19.67 19.52zM1198.68 3754.38c136.97 159.16 280.68 312.53 422.1 467.68l34.07-34c-150.54-146.1-293.6-299.99-437.62-452.17l-18.55 18.49zM1080.28 3569.83c163.39 161.16 325.3 325.22 495 479.56 25.09 23.31 63.1-13.66 37.94-38.16-166.81-158.19-341.48-308.08-514.08-459.89l-18.86 18.49zM1045.46 3352.55c145.36 167.47 305.11 323.14 458.85 482.3 26.95 27.99 70.45-15.51 42.38-42.38-159.23-153.81-315.06-313.35-482.15-458.93l-19.08 19.01zM1196.01 3420.39c98.73 86.41 200.13 169.41 296.72 257.74 23.83 21.53 53.45-15.58 27.54-35.03-103.18-78.62-202.22-162.65-303.55-243.2l-20.71 20.48zM2326.1 6692.38a2096.53 2096.53 0 00273.92 281.28l21.46-21.53c-101.33-83.58-194.28-175.2-278.9-276.3l-16.48 16.55zM2376.64 6573.76c51.82 61.47 116.26 114.25 172.83 171.34 57.38 58.2 111.79 118.7 164.2 180.69 23.83 27.91 65.7-13.14 40.61-40.53C2647.9 6769 2529.05 6634.41 2390 6556.24l-13.36 17.52zM2339.68 6409.7c183.88 180.1 365.9 363.3 527.74 563.96 19.37 24.35 55.75-10.76 34.52-34.66-172.52-191.45-346.68-380.83-539.7-551.87l-22.56 22.57zM2424.53 6287.66c122.56 201.62 317.95 379.27 490.03 538.43 27.76 25.98 70.15-16.56 41.35-41.43-91.16-79.58-179.87-161.61-265.02-247.43-84.85-85.67-159.75-182.69-247.72-264.27l-18.63 14.7zM2426.09 6067.85c46.4 77.13 114.99 142.61 176.01 208.6 67.55 73.64 135.62 148.32 207.93 217.28 25.69 24.87 63.92-13.14 39.05-39.12-69.93-71.79-143.27-140.23-213.95-211.43-63.69-63.39-123.9-134.81-196.2-187.96l-12.84 12.62zM2343.39 5817.82c165.25 181.73 341.18 353.59 513.26 528.41 29.1 29.76 75.43-16.56 45.28-45.43-177.27-169.41-351.66-343.34-535.54-505.84l-23.01 22.86zM2323.49 5619.69c175.2 172.67 347.5 346.08 509.11 532.19 23.01 26.36 63.1-13.21 38.75-38.6-168.14-178.31-341.78-353.96-527.95-513.71l-19.9 20.11zM2339.16 5469.29c139.86 174.38 314.31 327.6 471.17 486.76 28.51 28.87 73.57-16.56 44.25-44.48-162.88-155.22-320.03-327.08-498.12-464.26l-17.3 21.97zM2324.24 5262.25c43.73 90.27 141.72 164.13 216.62 228.57 79.06 68.22 163.62 140.15 255.29 191.82 27.55 15.14 62.07-24.87 35.12-45.43-86.71-67.92-179.43-125.97-264.28-195.83-74.61-61.46-143.5-147.35-228.05-193.83l-14.7 14.7zM2204.57 4998.93c203.18 182.7 400.43 375.19 609.18 551.42 23.53 19.97 57.83-13.28 34.52-35.19-200.88-185.14-416.38-356.92-623.5-536.12l-20.19 19.89zM2154.83 4847.64c206.38 192.42 420.85 375.48 644.22 548.45 31.69 24.35 66.81-20.19 33.78-44.02-228.13-164.06-448.08-337.85-659.66-522.92l-18.34 18.49zM2233.37 4684.62c184.1 174.39 366.35 352.48 561.52 514.68 29.32 24.42 71.71-16.7 42.39-42.47-190.93-168.06-387.59-328.71-573.54-502.5l-30.36 30.29zM2101.9 4479.88c236.51 182.84 458.33 379.93 677.25 583.19 27.47 25.32 68.37-15.22 41.12-40.61-220.03-204.6-455.95-391.96-696.4-571.32l-21.97 28.74zM2132.04 4349.67c212.61 197.61 432.64 383.72 669.37 552.16 34.82 24.87 68.9-33.1 33.48-57.01-236.44-158.79-464.05-331.61-674.06-523.88l-28.8 28.73zM2136.5 4110.41c177.27 222.04 389.96 436.87 630.85 589.8 34.59 21.9 61.32-29.32 31.17-52.78-227.83-175.64-442.59-349.13-637.46-561.96l-24.57 24.95zM2100.34 3960.9c201.92 205.11 408.3 408.74 636.35 584.46 27.24 21.09 63.92-26.27 37.19-48.33-220.48-182.54-442.81-361.23-647.63-561.44l-25.9 25.31zM2051.65 3774.94c197.46 233.99 415.34 461.89 662.77 643.47 29.62 21.46 67.85-27.76 39.35-51.3-236.52-197.17-466.72-391.59-674.35-620.01l-27.76 27.84zM2073.92 3686.45c234.36 202.67 454.1 417.58 667.52 641.25 31.41 33.18 79.88-16.19 49.74-49.88-207.64-231.39-441.25-439.92-688.76-627.89l-28.5 36.52zM2228.62 3664.55c128.36 152.85 298.35 278.24 447.34 410.67 28.29 24.94 70.15-17.6 41.35-41.57-154.78-127.91-305.85-278.75-478.44-382.69l-10.25 13.58zM2320.82 3623.06c126.28 114.62 254.03 227.97 377.11 345.64 22.79 21.97 57.9-14.62 34.08-34.15-132.51-107.94-260.86-220.7-390.77-331.98l-20.42 20.49zM2506.49 3656.32c59.46 46.32 122.34 90.27 179.13 140.15 23.09 19.9 51.59-17.59 25.45-33.26-64.95-39.12-125.97-85.44-188.85-127.98l-15.74 21.09zM2594.53 3601.08c46.09 43.42 96.88 82.4 145.87 123.01l20.11-25.83c-50.78-38.08-100.52-78.62-153.44-113.29l-12.54 16.11zM3654.61 6875.01c54.79 45.96 109.2 92.42 163.98 138.6l18.86-18.86c-55.53-45.59-111.35-90.49-167.1-135.41l-15.74 15.66zM3616.16 6712.36c99.48 94.72 206.59 180.24 318.91 258.78l17.81-30.13c-113.88-72.45-219.44-155.9-318.17-247.13l-18.55 18.49zM3605.1 6586.9c131.99 103.03 264.27 206.96 386.54 321.88 25.98 24.21 60.27-17.74 30.43-39.56-134.67-99.7-265.83-204.07-401.77-301.92l-15.21 19.61zM3615.63 6461c150.55 123.98 294.86 252.4 428.71 394.49 22.72 23.83 59.69-13.21 36.08-36.15-139.78-137.11-288.84-266.06-449.34-378.46l-15.45 20.12zM3589.13 6318.39c179.94 167.48 368.2 327.08 551.79 491.66 25.98 23.46 64.96-16.7 38.53-38.45-190.12-157.83-376.08-320.92-568.79-474.67l-21.53 21.46zM3567.68 6155.74c186.48 149.96 370.58 302.81 555.73 453.73 28.81 22.94 60.73-17.74 31.18-40.16-190.42-144.91-381.87-288.03-571.17-434.05l-15.74 20.48zM3512.97 5941.94c165.99 166.43 347.5 308.53 533.98 450.61 25.09 19.53 53.67-25.83 25.09-43.36-194.28-120.19-370.29-273.04-533.68-432.72l-25.39 25.46zM3491.44 5761.7c165.76 190.49 354.1 366.72 553.64 520.99 30.88 23.97 64.44-18.49 33.04-42.98-200.87-154.11-386.54-319.73-564.63-499.9l-22.04 21.9zM3489.66 5612.19c162.06 173.93 336.5 337.03 517.2 490.91 31.41 26.28 75.94-20.19 44.54-44.47-188.33-147.06-365.9-304.74-537.69-470.35l-24.05 23.9zM3460.56 5439.97c157.16 193.75 373.7 369.62 582.16 506.28 36.67 23.9 67.33-32.73 33.78-57.98-202.15-152.85-391.52-317.5-589.21-475.1l-26.72 26.8zM3479.71 5319.77c166.51 147.14 333.39 293.98 499.9 440.88l33.26-33.03c-168.88-144.69-338.06-289.07-507.25-433.61l-25.91 25.76zM3484.39 5210.5c47.44 62.95 121.82 105.49 184.4 152.26a54521.6 54521.6 0 00239.85 179.28c31.7 23.98 64.43-30.8 31.17-53.67-76.98-53.3-154.48-106.52-231.76-159.68-67.34-46.46-134.37-106.89-212.39-132.87l-11.28 14.7zM3458.18 5039.47c147.21 150.91 312.76 279.87 487.95 396.11 33.26 21.97 65.48-32.73 31.4-53.74-175.71-107.94-339.4-231.99-498.34-363.31l-21.01 20.94zM3428.63 4833.54c151.07 147.95 315.8 277.34 480.01 410.66 30.36 24.27 64.95-20.48 32.73-42.46-173.33-116.33-331.83-255-488.39-392.7l-24.35 24.5zM3389.89 4604c161.31 151.89 322.63 304.22 482.89 457.44 28.29 26.95 72.31-16.92 42.92-42.91-166.29-146.91-331.76-295.38-497.01-443.26l-28.8 28.73zM3376 4449.81c155.31 141.5 317.88 275.78 477.11 413.49 30.14 25.77 73.86-19 43.2-43.5-164.94-133.77-328.11-271.48-496.78-400.87l-23.53 30.88zM3394.86 4313.07c150.55 149.81 308.96 296.2 481.34 420.85 32.22 23.38 62.28-29.77 30.88-52.71-168.14-125.53-332.58-251.06-484.98-395.45l-27.25 27.32zM3409.78 4146.86c159.23 149.88 323.96 293.01 495.97 428.41 35.4 27.76 74.68-22.56 38.01-49.44a8645.09 8645.09 0 01-505.99-407.18l-27.99 28.21zM3389.89 3994.16c63.62 86.49 154.78 151.45 238.81 216.77 94.8 73.79 192.49 146.02 295.91 207.49 34.59 20.05 63.92-31.7 31.17-53.23-93.98-61.99-189.82-120.49-281.28-186.56-90.35-64.73-173.64-144.46-271.03-198.13l-13.58 13.65zM3369.39 3801.37c132.29 167.32 302.81 309.93 492.11 409.55 33.03 17.07 61.83-32.29 29.1-50.33-188.34-101.48-354.1-223.07-507.55-372.95l-13.66 13.73zM3299.24 3651.78c198.28 165.62 397.83 330.65 608.36 480.6 32.22 22.93 63.1-30.29 31.18-53.3-207.71-147.43-416.91-292.49-617.57-449.57l-21.97 22.27zM3362.64 3555.57c146.61 147.06 306.37 275.57 481.04 387.88 33.78 21.38 66-33.41 31.18-53.82-174.38-103.03-338.07-222.19-490.25-356.4l-21.97 22.35zM3534.94 3550.3c100.59 84.48 202.73 167.99 305.11 251.07 29.32 23.38 62.28-18.63 31.7-41.06-106.08-78.69-212.17-156.34-319.51-232.51l-17.3 22.49zM3688.68 3552.23c72.23 48.26 143.8 99.55 206.38 160.21l22.78-29.77c-71.48-52.26-141.41-105.57-216.61-152.4l-12.55 21.97zM3789.49 3517.05c37.2 19.52 77.5 36.22 112.32 60.05 21.53 14.18 40.9-25.76 14.4-33.55-38.97-11.28-77.21-31.4-114.17-47.96l-12.55 21.46zM3909.16 3488.84l16.26 33.63c12.54 25.39 51.29 2.89 38.23-22.42l-17.3-33.18c-12.55-25.39-49.51-3.49-37.2 21.97zM4691.46 6490.24c26.95 38.6 61.01 68.74 98.95 97.25l19.37-32.74c-41.12-17.52-72.01-44.91-100.51-78.69l-17.81 14.18zM4684.85 6337.47l22.27 28.73 21.53 25.46 43.43 50.77a8212.23 8212.23 0 0088.26 100.52c21.46 24.34 59.46-12.7 35.86-36.08-33.48-33.26-66.74-66.81-100.52-99.55-25.69-24.5-56.35-67.41-89.08-82.18-23.53-10.76-49.74 13.29-23.02 28.95l1.27-16.63zM4641.64 6207.48c90.12 93.76 191.23 167.11 291.75 248.1 24.65 19.52 51.89-19.53 25.69-33.26-110.54-58.13-208.97-147.43-297.46-234.74l-19.97 19.9zM4606.82 6040.45c116.33 127.09 245.65 251.59 374.23 365.83l34.59-34.66c-121.75-121.68-254.78-242.75-388.63-351.13l-20.19 19.97zM4597.91 5875.95c98.51 148.47 229.69 280.83 353.06 408.81 25.39 25.77 66.52-14.7 40.31-40.24-128.06-124.35-243.05-262.05-371.62-385.65l-21.75 17.07zM4613.14 5711.89c50.56 73.79 123.9 134.8 185.95 199.69 68.82 72.31 136.97 146.1 203.18 220.78 21.23 23.9 57.09-11.8 35.12-35.27-67.85-73.19-137.49-144.91-208.45-215.8-62.88-62.43-126.79-135.62-202.96-182.61l-12.84 13.21zM4560.5 5499.5c125.68 144.17 263.46 274.37 407.77 399.98l19.6-25.46c-150.33-115.66-285.95-248.47-411.71-390.18l-15.66 15.66zM4503.93 5337.44c150.03 140.16 294.05 289 449.64 423.81 25.39 22.05 62.36-13.65 37.41-37.64-148.47-142.61-310.3-272.52-464.26-409.18l-22.79 23.01zM4487.97 5185.04c136.97 126.42 276.01 251.06 409.85 380.45l33.26-33.26c-142.24-120.62-279.72-247.05-419.06-371.1l-24.05 23.9zM4469.64 5001.9c135.4 149.96 278.9 293 418.24 438.95l28.81-28.73c-142.24-143.65-281.28-290.49-427.44-429.6l-19.6 19.37zM4486.86 4867.09a263183.8 263183.8 0 00465.67 492.26l32.23-32.23a264466.09 264466.09 0 00-475.33-482.3l-22.57 22.27zM4545.28 4758.34c130.13 128.95 268.44 248.1 403.02 371.55l21.53-27.84c-145.35-107.86-279.72-232.94-411.4-356.92l-13.15 13.21zM4511.51 4561.02c154.26 118.18 293.82 251.51 421.88 397.53 22.57 25.39 61.54-13.28 37.49-37.57-136.97-141.2-286.25-268.06-445.71-383.42l-13.66 23.46zM4487.46 4395.99c132.74 154.26 282.54 287.15 446.45 406.67 34.59 24.94 69.93-33.56 33.78-57.98-163.39-109.42-315.49-235.32-459.29-369.76l-20.93 21.08zM4518.85 4280.71c127.54 113.35 258.49 223.67 382.09 340.44 24.65 22.86 61.25-16.11 36.38-36.22-134.3-105.34-263.16-218.7-393.89-328.12l-24.58 23.9zM4569.93 4128.9c114.7 121.15 237.78 232.8 366.35 339.4 24.13 19.97 58.95-15.22 34.59-34.66-130.95-103.64-255.07-214.4-376.08-329.6l-24.87 24.87zM4551.82 3911.75c116.54 129.25 242.82 250.77 363.53 375.79 25.69 26.95 67.85-15 40.83-40.98-126.21-119.52-248.55-244.61-378.9-360.34l-25.45 25.53zM4701.4 3964.38c-37.19-34.66-98.21-89.37-97.99-144.01l-31.92 13.14c98.43 108.31 214.24 209.5 326.34 303.7 28.5 23.9 69.34-15.14 41.57-41.57-108.08-101.48-224.63-205.41-345.12-291.45l-18.86 32.37c44.77 29.25 79.58 96.13 121 132.66l4.97-4.83zM4600.59 3678.14c117.82 129.02 242.97 249.66 364.5 375.56 22.27 23.46 59.16-15 35.11-35.19-134.07-111.28-257.15-236.81-378.15-361.82l-21.46 21.45zM4622.78 3572.28c119.44 109.87 243.57 215.36 361.98 326.64 24.34 22.93 61.54-16.19 36.15-36.08-127.31-101.48-250.1-209.04-376.89-311.49l-21.23 20.93zM4636.67 3435.09c95.91 133.25 217.65 242.15 351.2 336.36 27.77 19.67 56.57-27.84 26.95-45.8-135.11-83.59-248.24-191.38-351.95-310.68l-26.2 20.12zM4710.01 3367.16c92.42 98.22 192.27 188.41 285.96 285.66 29.1 29.84 76.24-20.05 45.06-44.85-105.49-84.48-205.85-176.38-312.38-259.3l-18.63 18.49zM4829.97 3347.64c57.31 65.48 128.28 119.22 186.7 183.65 22.79 24.95 59.98-16.7 29.85-38.68-70.15-50.77-130.36-115.21-201.41-164.43l-15.14 19.45zM4898.05 3279.79c45.28 51.3 99.25 88.93 154.49 127.91 27.24 19 53.97-30.29 18.86-44.85-57.09-23.9-107.05-63.1-155.23-101.1l-18.12 18.04zM5026.11 3286.03c27.54 23.02 54.48 46.47 81.73 69.41l23.31-30.22c-28.58-21.45-56.86-42.91-85.67-63.92l-19.37 24.72zM5223.86 1088.37a9768.7 9768.7 0 0098.22-187.52l-34.9-20.05a13655.16 13655.16 0 00-91.38 191.38l28.06 16.19zM5279.1 1273.43c43.73-79.59 109.2-140.6 190.93-179.73l-15.22-26.35c-83.29 44.84-147.42 113.29-187.74 198.73l12.03 7.35zM5780.86 2412.13c63.39-41.42 127.02-83.07 190.63-124.64l-15.95-27.17c-63.11 42.46-125.98 84.85-188.79 126.87l14.11 24.94zM5753.09 2575.3c147.72-93.9 303.55-165.62 471.17-216.4l-8.68-31.17c-167.85 54.56-327.08 129.17-475.55 225.08l13.07 22.49zM1667.18 453.58c30.14 53.23 60.72 106.52 90.86 159.75l21.97-12.77a34057 34057 0 00-97.92-155.68l-14.92 8.69zM1661.91 14.55c93.76 221.3 187.52 442.97 281.28 664.63l31.17-18.04A852220.18 852220.18 0 001687.08 0l-25.17 14.55zM0 1685.51c40.83 14.7 82.26 27.91 123.9 40.61l9.13-32.73c-42.68-9.73-84.85-19.16-127.76-26.95L0 1685.52zM22.28 1479.58c73.57 31.7 147.21 62.81 220.77 94.2a18.38 18.38 0 0014.1-33.78c-74.08-30.14-147.95-60.43-222.33-90.86l-12.54 30.43zM2079.93 2181.11c-17.59 29.25-17.07 64.95 4.16 92.94 18.85 23.9 48.47 16.93 64.95-7.49 43.5-63.4-56.27-115.73-93.98-52.71-16.03 26.95 24.57 50.33 41.86 24.42l1.86-49.29-18.86-7.86zM1770.07 2219.79c-37.93 23.31 29.62 81.96 49.29 32.73l-27.54-7.49-12.32-12.55-9.43-12.69zM4002.92 2234.34c-60.72 34.29-13.88 144.09 53.98 117.36 65.69-26.95 20.19-143.12-48.48-119.81-37.41 13.15-13.58 69.34 20.93 49.88 0 0 28.07 28.73-2.59 28.29-29.03-1.04-28.81-47.81-13.36-61.99l-10.47-13.73zM3999.28 2687.02l-8.68 29.25c-8.91 32.74 48.47 33.34 39.34 0l-8.38-29.25h-22.28zM4920.03 2648.94c-73.79 46.84-7.57 156.19 65.48 157.75l23.09-17.6c17-43.5 4.45-89.37-31.48-119.14l-36.38-4.45c-31.92 19-63.92 38.15-96.13 57.23-36.89 21.97-1.56 80.99 33.55 56.94 30.88-20.93 62.07-41.8 92.95-62.81h-30.36l25.39 49.74-44.47-22.94c-17.07-26.8-18.86-61.46 7.57-82.99l-9.2-11.73zM5195.07 5699.2c96.06-129.91 331.53-99.62 385.42 55.23l34.08-9.8c-63.62-178.61-329.46-216.77-433.68-53.74l14.18 8.31z"/><path class="fil0" d="M5592.08 5752.42c19.6-249.06 358.48-282.76 531.6-181.66 179.13 104.97 219.95 373.55 28.28 489.88l20.72 36.01c219.95-131.92 182.02-441.86-27.76-561.96-197.99-113.36-551.05-56.12-562.78 217.73h9.95z"/><path class="fil0" d="M6120.04 6060.65c140.89-76.76 343.85-8.84 393.81 150.84 55.53 177.2-120.93 344.23-291.67 324.71-32.74-4.01-32.52 47.28 0 50.7 201.32 22.04 404.06-183.07 336.5-388.18-59.24-179.65-292.56-251.43-447.86-154.26l9.21 16.19z"/><path class="fil0" d="M5903.71 6411.63c-64.43-24.79-107.42 38.01-115.21 96.21-8.91 65.92 18.56 132.8 61.55 181.58 102.89 116.33 282.54 115.73 368.72-19 74.61-116.7 53.16-287.59-78.61-352.54-122.05-60.14-292.26-8.76-347.19 118.7-14.7 34.59 34.29 64.95 51 30.29 89.83-184.18 397.3-131.92 359.6 92.65-17 102.15-105.79 187.14-213.95 161.61-47.44-10.69-91.38-39.5-122.56-76.98-18.33-22.57-33.55-49.88-40.83-78.17-11.8-43.5-7.64-160.27 73.57-139.64l3.93-14.7z"/><path class="fil0" d="M5872.54 6693.87c-45.8 180.1-274.45 279.35-431.83 175.71-34.07-22.41-66.29 32.74-32.22 54.72 187.74 121.15 464.05-2.31 482.38-228.13l-18.33-2.3zM1326.96 5304.19c-302.22-7.73-570.35 209.94-648.37 498.12-12.84 47.73 62.57 68.22 73.79 20.49 65.48-274.01 297.02-461.38 574.58-488.32v-30.29zM756.32 5913.52c-119.15-19.45-226.28-5.35-304.3 99.18-72.52 97.1-70.45 224.12-4.45 324.26 146.91 223.6 521.13 101.48 484.75-170.89-8.38-62.5-105.78-65.99-100.81 0 14.63 194.28-229.98 259.24-320.03 90.28-84.33-157.68 78.02-342.82 243.79-335.32l1.04-7.49z"/><path class="fil0" d="M548.38 6384.16c-190.34-156.11-378.89 120.34-283.58 301.77 174.9 333.02 665.15 301.91 941.45 139.64 57.09-32.96 5.27-122.42-51.81-88.79-157.16 92.79-338.88 133.4-519.35 93.83-66-14.77-134.89-38.6-192.49-75.2-64.96-38.01-110.54-93.76-136.67-166.58-7.86-159.16 68.59-221.59 229.09-186.93l13.36-17.75zM845.91 6069.41c34 95.69 154.26 135.63 239.34 78.98l-21.46-36c-64.95 45.95-159.23 18.04-191.15-53.75l-26.73 10.77zM5906.61 5874.54l24.35 1.93c29.84-24.42-9.42-75.72-41.43-53.67-51.81 35.03-12.54 130.43 49 101.99 52.63-24.49 17-112.76-37.71-94.27-22.49 7.8-20.71 46.47 5.79 44.02zM5418.44 6036.15l.52 31.18c.22 25.53 40.31 21 35.34-4.76l-6.01-30.8-29.84 4.38zM6270.58 6253.43l-5.71 27.84c-11.28 47.36 68.82 33.63 45.28-5.79l-14.18-25.54-25.39 3.49zM1009.82 5718.2c-28.28 16.7-58.42 31.33-68.89 64.43-9.13 30.44 3.41 61.1 32.73 74.38 56.57 24.27 127.83-26.87 91.68-87.97-30.66-51.22-107.34-5.94-79.87 46.33 18.63-34.53 19.37-46.84 2.37-37.05l14.11-.44 5.79-9.36 16.48-31.7-14.4-18.63z"/></g></g></svg>