<svg xmlns="http://www.w3.org/2000/svg" width="488.341" height="419.138" viewBox="0 0 46827.43 40191.67" shape-rendering="geometricPrecision" text-rendering="geometricPrecision" image-rendering="optimizeQuality" fill-rule="evenodd" clip-rule="evenodd"><defs><style>.str0{stroke:#6d6e71;stroke-width:27.62;stroke-miterlimit:22.9256}.fil0,.fil1{fill:none;fill-rule:nonzero}.fil0{fill:#6d6e71}</style></defs><g id="Слой_x0020_1"><g id="_1995082381040"><path class="fil0" d="M13438.49 13059.07c1679.1 4505.63 2330.3 9244.58 2233.46 14036.02-10.91 504.71 773.34 504.71 782.4 0 94.63-4889.51-957.59-9588.16-2841.57-14083.2-44.36-104.63-214.88-63.39-174.29 47.19z"/><path class="fil0" d="M15899.95 27205.63c-581.54-152.4-1193.09 281.42-1272.43 875.47-87.13 654.97 468.18 1197.15 1092.85 1238.07 282.04 19.06 285.48-431.03 0-441.32-401.02-16.56-768.95-390.11-684.32-807.04 81.54-388.23 458.5-604.37 829.87-612.17 142.11-4.06 177.41-213.94 34.03-253.01z"/><path class="fil0" d="M15709.43 29259.51c4535.02 2669.16 11290.35 3704.2 15895.02 694.62 301.68-196.76 32.76-667.44-284.54-486.91-4988.81 2859.65-10466.13 1573.49-15545.5-361.37l-64.98 153.67z"/><path class="fil0" d="M31507.29 29514.69c696.5-18.12 1250.57-723.07 1204.36-1398.91-51.86-756.48-791.13-1279.93-1509.49-1247.13-321.69 16.24-320.78 521.89 0 499.09 493.47-30.91 962.92 271.09 1055.66 778.63 103.4 560.96-297.66 969.77-777.07 1167.47-99.01 40.92-97.75 203.03 26.53 200.85z"/><path class="fil0" d="M31250.58 27109.12c-437.26-4497.18-391.05-8920.07 530.01-13359.48 83.72-408.85-545.34-583.14-628.08-172.73-894.53 4480.66-1064.43 9072.51-123.37 13560.66 24.35 123.66 233.62 98.69 221.44-28.45z"/><path class="fil0" d="M13578.42 12720.5c-1795.87 1727.81 5005.7 2462.69 5887.07 2505.78 2286.23 113.08 4574.67-114.6 6843.43-390.07 1760.57-211.15 3544.59-338.57 5082.82-1300.22 373.55-233.94 28.41-830.16-346.08-591.54-2350.27 1489.48-5937.67 1476.98-8652.71 1637.2-1296.78 76.22-2600.12 94.66-3893.79-12.18-298.6-24.68-5665.63-665.88-4819.23-1771.19l-101.51-77.78z"/><path class="fil0" d="M13342.63 12896.96c-877.02-5.94-1193.09-1177.18-354.81-1538.52 195.2-86.22 24.35-369.82-167.4-287.65-491.3 211.73-805.52 784.57-636.85 1308.34 160.84 503.77 680.88 750.21 1177.8 662.11l-18.74-144.28z"/><path class="fil0" d="M13078.39 11107.32c-555.3-700.24-1049.1-1618.79-813.31-2540.47 241.45-949.18 1369.56-1633.47 2194.75-869.23 211.73 196.8 531.24-123.04 317.3-316.36-825.16-735.54-2070.12-484.45-2606.68 472.24-667.76 1189.65-78.39 2486.1 754.6 3406.22 94.95 104.96 235.79-47.48 153.34-152.4z"/><path class="fil0" d="M14888.65 7681.1c19.68-659.64 991.62-899.53 1248.36-263.01 107.75 264.86 483.51 112.46 365.76-154.28-177.41-411.02-635.91-679.94-1083.17-593.1-509.09 98.07-720.53 540.33-699.62 1010.4 5.62 107.13 165.23 109.31 168.67 0zM16728.56 7196.36c-36.21-1125.65 457.27-2291.23 1605.38-2675.11 1390.47-461.91 2818.45 630.9 2959.61 2040.14 27.47 290.15 484.74 290.15 452.88 0-162.11-1481.07-1486.36-2754.44-3043.33-2506.11-1404.86 224.23-2488.93 1768.4-2078.24 3155.75l103.69-14.68z"/><path class="fil0" d="M21715.52 6479.23c334.81-748 1398.3-595.6 1435.44 247.06 11.24 256.41 399.17 260.8 400.11 0 1.23-522.21-400.11-1013.19-929.83-1072.84-498.15-55.6-944.47 283.6-1086.58 750.21-31.86 102.42 134.6 178.02 180.85 75.56z"/><path class="fil0" d="M23173.14 6600.75c446.32-945.12 1792.76-811.75 1900.5 281.38 25.62 248.3 401.35 258.62 395.73 0-36.24-1435.77-2082.58-1771.19-2504.55-367.89-36.24 121.16 152.11 205.17 208.32 86.51z"/><path class="fil0" d="M25344.77 7077.66c201.76-1216.83 1208.71-2334.32 2528.91-2209.11 1241.51 119.31 2123.21 1446.39 1805.88 2631.69-50.92 190.82 241.12 271.09 297.33 82.12 408.85-1390.47-530.95-2953.99-2016.37-3104.22-1478.57-149.9-2726.93 1155-2786.59 2574.21l170.85 25.3z"/><path class="fil0" d="M29796.36 7884.41c263.3-201.47 612.49 51.83 654.32 345.42 48.42 356.99-241.41 679.94-463.79 920.12-144.28 157.73 80.28 383.84 234.56 234.56 360.43-347.92 764.89-947.91 437.59-1446.06-208.36-318.57-673.38-485.68-971.98-195.53l109.31 141.49z"/><path class="fil0" d="M29932.85 9575.04c1960.16 216.11 2796.27 2685.4 1027.86 3804.78-258.91 162.4-15.29 579.04 240.18 410.7 1981.11-1304.28 1259.63-4527.81-1268.04-4383.49-108.98 5.91-104.63 156.13 0 168.02zM16027.71 11929.37c-20.91 357.31 196.14 643.08 522.54 776.45 421.93 174.9 881.37 39.36 1292.4-93.72 226.77-74.62 126.49-438.17-99.3-360.39-479.12 167.08-1359.59 391.02-1476.4-355.14-20.91-141.78-231.44-96.8-239.23 32.8z"/><path class="fil0" d="M17876.67 12133.01c384.49 897.61 1701.28 1107.49 2331.53 353.22 131.2-156.46-93.69-383.84-224.88-225.79-513.44 613.73-1583.17 503.15-1931.42-230.17-56.21-119.31-225.83-14.71-175.23 102.75zM23958.65 9745.88c278.92-460.38 844.23-655.26 1347.7-474.74 215.82 78.07 319.51-279.54 95.86-347.31-648.99-197.08-1337.7 133.99-1593.17 758.01l149.61 64.04z"/><path class="fil0" d="M25312.92 9251.14l-3.45 157.73h93.69l-3.12-157.73z"/><path class="fil0" d="M25567.45 9256.47c298.6-609.67 941.97-975.42 1621.91-878.58 272.03 38.42 394.5-374.16 115.58-421.32-857.02-139.93-1710.92 309.8-2072.62 1102.81-102.42 224.27 224.88 423.2 335.13 197.08zM23891.5 11473.37c262.36 868.91 1376.12 1156.85 2056.06 581.87 147.72-125.87-66.21-339.19-214.88-213.94-512.21 439.76-1412.65 199.26-1666.89-417.58-43.13-101.84-208.32-65.27-174.29 49.65z"/><path class="fil0" d="M25753.59 12136.75c246.74 357.64 723.97 466.33 1099.73 242.39 143.05-85.89 10.91-313.6-133.37-225.83-263.3 162.73-604.99 92.45-797.69-145.55-74.95-96.8-237.06 28.41-168.67 128.99zM16360.66 9207.11c-61.87-439.44 481.3-872.97 894.49-673.05 169.9 84.01 315.13-177.41 145.55-251.12-605.93-265.15-1356.44 293.6-1179.97 963.86l139.93-39.69z"/><path class="fil0" d="M17513.13 8634.3c355.75-846.07 1538.23-895.76 1825.55 33.13 55.31 182.37 346.08 102.42 284.54-78.39-371.34-1100.96-1963.6-1191.86-2278.73 0-28.74 111.15 126.78 145.84 168.63 45.27zM16611.75 27984.26c3945.65 2695.08 10959.93 3272.27 14397.71-602.16 156.46-174.25-100.28-432.88-258.01-258.59-3558.95 3940-9885.49 2894.34-14082.23 759.89l-57.48 100.86z"/><path class="fil0" d="M15796.59 14756.26c1113.76 4244.21 1661.27 8584.94 1617.23 12973.47-2.21 250.47 389.17 250.47 389.17 0-5.65-4431.62-642.47-8753.94-1934.9-12991.92l-71.51 18.45zM17895.41 15105.41c1053.49 4482.54 1609.77 8959.47 1317.73 13565.34-16.56 260.18 391.34 260.18 406.64 0 264.57-4589.96-154.28-9220.52-1584.44-13604.05l-139.93 38.71zM29115.19 14456.72c-1231.84 4139.29-724.92 9133.1-77.16 13338.61 38.74 246.74 415.41 141.49 375.72-105.28-367.89-2294.35-582.77-4609.93-592.78-6934.91-9.68-2106.03 336.07-4197.06 322.95-6294.65l-28.74-3.77zM26383.87 14620.71c-400.08 4708.66-254.53 9466.64 749.27 14096.29 60.6 279.83 473.79 158.67 426.32-116.52-807.66-4642.73-1264.92-9267.05-1060.01-13979.77h-115.58zM23580.72 15101.36c-16.53 4765.81 500.36 9620.34 1070.05 14350.24 33.09 272.36 463.79 280.77 435.05 0-502.21-4774.87-804.21-9584.43-1360.79-14350.24h-144.32zM21121.47 15257.52c84.95 4728.95 564.36 9488.86 910.11 14205.63 20.01 275.48 450.67 277.65 429.76 0-364.81-4722.39-607.17-9507.27-1229.62-14205.63h-110.25z"/><path class="fil0" d="M16242.59 26531.96c356.04 530.01 806.75 1000.36 1246.19 1459.8l134.6-133.05c-471.62-431.64-871.7-918.23-1291.45-1394.85l-89.34 68.1zM16232.91 25832.96c352.31 548.78 821.72 1039.43 1236.18 1541.02 92.45 115.25 263.3-51.21 163.96-163.96-425.05-480.68-829.51-1017.57-1308.96-1446.72l-91.19 69.66zM16302.24 25054.33c353.54 497.21 728.36 982.27 1107.2 1463.24 93.69 119.02 264.53-49.65 168.67-168.63-380.11-466.33-764.6-930.74-1166.85-1378.94l-109.02 84.34zM16178.87 24123.88c415.41 569.07 840.46 1134.09 1242.74 1713.46 75.89 108.98 231.44-6.56 145.55-112.75-437.55-544.39-856.08-1107.52-1281.49-1663.77l-106.81 63.06zM16010.2 23295.93c370.11 548.74 774.6 1072.84 1206.54 1575.67l125.54-125.22c-434.11-484.74-839.51-990.1-1221.83-1516.05l-110.25 65.6zM16045.5 22720.91c391.05 456 787.69 910.15 1171.24 1372.38l111.19-110.86c-409.79-437.91-807.69-887.64-1210.89-1333.02l-71.54 71.51zM15868.1 21880.75c391.05 614.05 906.71 1205.92 1384.89 1752.49 114.6 129.31 291.06-57.77 187.37-187.08-447.23-563.13-928.85-1166.85-1455.45-1653.77l-116.81 88.36zM15600.45 20902.86c516.6 638.7 1032.25 1279.93 1545.69 1920.84 89.34 112.75 258.01-49.04 159.94-160.55-542.22-612.17-1082.23-1227.78-1621.95-1844.62l-83.68 84.34zM15384.3 19919.03c584.08 665.26 1162.5 1333.02 1739.99 2005.13 95.57 110.57 263.3-53.71 163.05-162.73-602.82-647.14-1201.25-1295.84-1797.14-1949.87l-105.9 107.46zM15329.36 19195.67c448.5 544.72 945.41 1039.75 1496.33 1478.86 129.93 105.28 276.42-82.12 140.87-182.7-561.86-410.7-1079.73-870.75-1551.35-1382.68l-85.86 86.51zM15049.49 18275.23c517.83 581.58 1131.55 1097.23 1738.72 1581.65 105.57 84.34 223.65-65.27 114.31-147.43-623.4-470.68-1188.71-998.18-1775.87-1511.95l-77.16 77.74zM14907.39 17498.81c535.33 599.95 1119.38 1140 1733.1 1657.83 111.19 92.74 241.12-71.22 122.14-156.17-644.35-464.44-1229.66-1004.13-1775.9-1581.65l-79.33 79.99zM14691.24 16512.77c573.13 628.4 1160.33 1243.07 1728.75 1875.53 98.07 108.69 264.53-57.48 159.9-160.52-608.4-591.25-1202.15-1201.54-1805.88-1797.14l-82.78 82.12zM14631.91 15795.68c576.25 669.61 1180.92 1314.9 1775.9 1967.66l143.34-143.05c-633.37-614.67-1235.24-1262.13-1841.18-1902.39l-78.07 77.78zM14133.76 15019.23c687.41 678.05 1368.61 1368.29 2082.58 2017.64 105.57 98.07 265.47-57.48 159.61-160.55-701.79-665.55-1436.71-1296.17-2162.86-1934.86l-79.33 77.78zM13987.27 14105.06c611.55 704.58 1283.66 1359.55 1930.51 2029.16 113.37 117.75 296.39-65.27 178.31-178.31-669.94-647.14-1325.52-1318.35-2028.55-1930.84l-80.28 79.99zM14620.68 14390.5c415.37 363.55 842.01 712.74 1248.36 1084.4 100.25 90.57 224.88-65.56 115.87-147.4-434.11-330.78-850.79-684.32-1277.1-1023.19l-87.13 86.18zM19375.25 28156.66c348.21 431.97 732.71 826.14 1152.47 1183.42l90.28-90.57c-426.32-351.66-817.37-737.09-1173.41-1162.47l-69.33 69.62zM19587.92 27657.57c218.03 258.62 489.12 480.68 727.13 720.86 241.41 244.85 470.35 499.42 690.85 760.22 100.25 117.42 276.42-55.27 170.85-170.52-447.55-489.12-947.59-1055.37-1532.61-1384.27l-56.21 73.72zM19432.41 26967.34c773.63 757.72 1539.46 1528.51 2220.34 2372.74 81.51 102.46 234.56-45.27 145.22-145.84-725.86-805.48-1458.57-1602.27-2270.65-2321.86l-94.92 94.95zM19789.39 26453.86c515.65 848.28 1337.7 1595.71 2061.67 2265.32 116.81 109.31 295.16-69.66 173.96-174.29-383.55-334.81-756.77-679.94-1115.03-1040.98-356.99-360.43-672.11-768.62-1042.22-1111.87l-78.39 61.83zM19795.95 25529.06c195.2 324.51 483.8 599.99 740.54 877.64 284.21 309.83 570.6 624.02 874.81 914.17 108.07 104.63 268.92-55.27 164.29-164.58-294.21-302.04-602.78-589.99-900.15-889.53-267.97-266.71-521.27-567.19-825.45-790.8l-54.04 53.09zM19448.03 24477.14c695.23 764.6 1435.44 1487.63 2159.42 2223.17 122.43 125.22 317.34-69.66 190.53-191.14-745.83-712.74-1479.51-1444.54-2253.14-2128.21l-96.8 96.19zM19364.31 23643.53c737.09 726.47 1462.01 1456.07 2141.95 2239.08 96.8 110.9 265.47-55.6 163.02-162.4-707.41-750.21-1437.94-1489.19-2221.25-2161.3l-83.72 84.63zM19430.19 23010.78c588.43 733.65 1322.4 1378.29 1982.34 2047.94 119.96 121.48 309.54-69.66 186.18-187.12-685.27-653.05-1346.47-1376.12-2095.74-1953.27l-72.77 92.45zM19367.42 22139.7c183.97 379.78 596.26 690.52 911.38 961.65 332.63 287 688.38 589.66 1074.07 807.04 115.9 63.71 261.12-104.63 147.76-191.14-364.81-285.77-754.92-530.01-1111.91-823.93-313.89-258.59-603.72-619.96-959.48-815.49l-61.83 61.87zM18863.95 21031.85c854.84 768.66 1684.72 1578.53 2562.97 2319.97 99.01 84.01 243.29-55.89 145.22-148.05-845.17-778.92-1751.84-1501.66-2623.25-2255.6l-84.95 83.68zM18654.68 20395.32c868.29 809.54 1770.61 1579.76 2710.41 2307.47 133.33 102.46 281.09-84.95 142.11-185.2-959.8-690.23-1885.21-1421.42-2775.35-2200.05l-77.16 77.78zM18985.14 19709.44c774.57 733.69 1541.34 1482.96 2362.45 2165.4 123.37 102.75 301.72-70.27 178.35-178.67-803.31-707.08-1630.68-1382.97-2413.04-2114.15l-127.75 127.43zM18432.01 18848.07c995.07 769.24 1928.3 1598.46 2849.36 2453.63 115.58 106.52 287.65-64.04 173.02-170.85-925.73-860.79-1918.3-1649.09-2929.93-2403.69l-92.45 120.9zM18558.82 18300.24c894.49 831.4 1820.23 1614.41 2816.23 2323.09 146.49 104.63 289.86-139.28 140.87-239.85-994.78-668.09-1952.37-1395.18-2835.95-2204.1l-121.16 120.87zM18577.56 17293.61c745.83 934.18 1640.65 1838.02 2654.16 2481.43 145.55 92.13 257.97-123.37 131.16-222.06-958.53-738.98-1862.09-1468.9-2681.96-2364.33l-103.36 104.96zM18425.45 16664.55c849.52 862.96 1717.81 1719.69 2677.28 2458.96 114.6 88.72 268.92-110.54 156.46-203.32-927.62-768.01-1863.03-1519.78-2724.76-2362.12l-108.98 106.48zM18220.58 15882.19c830.78 984.45 1747.45 1943.31 2788.44 2707.25 124.64 90.28 285.48-116.81 165.55-215.82-995.1-829.55-1963.6-1647.53-2837.18-2608.57l-116.81 117.13zM18314.26 15509.88c986 852.67 1910.51 1756.88 2808.44 2697.9 132.14 139.6 336.07-68.1 209.26-209.88-873.58-973.54-1856.47-1850.85-2897.78-2641.69l-119.93 153.67zM18965.13 15417.75c540.04 643.08 1255.25 1170.62 1882.09 1727.81 119.02 104.92 295.16-74.04 173.96-174.9-651.2-538.16-1286.78-1172.8-2012.93-1610.06l-43.13 57.15zM19353.07 15243.17c531.27 482.24 1068.78 959.15 1586.61 1454.18 95.9 92.45 243.62-61.5 143.37-143.66-557.51-454.11-1097.52-928.56-1644.09-1396.74l-85.89 86.22zM20134.2 15383.1c250.18 194.87 514.71 379.78 753.66 589.66 97.13 83.72 217.05-74.01 107.1-139.93-273.27-164.58-530.01-359.49-794.54-538.45l-66.21 88.72zM20504.63 15150.72c193.93 182.7 407.58 346.69 613.73 517.54l84.63-108.69c-213.65-160.23-422.91-330.78-645.58-476.62l-52.77 67.77zM24964.67 28924.99c230.5 193.35 459.44 388.84 689.91 583.14l79.33-79.33c-233.62-191.79-468.47-380.72-703.03-569.69l-66.21 65.89zM24802.88 28240.7c418.52 398.52 869.2 758.33 1341.76 1088.75l74.95-126.78c-479.12-304.83-923.23-655.91-1338.64-1039.75l-78.07 77.78zM24756.35 27712.87c555.3 433.49 1111.87 870.75 1626.3 1354.23 109.31 101.84 253.59-74.62 128.04-166.46-566.57-419.47-1118.43-858.58-1690.34-1270.25l-64 82.49zM24800.67 27183.16c633.4 521.6 1240.57 1061.9 1803.7 1659.71 95.57 100.25 251.12-55.6 151.78-152.11-588.1-576.87-1215.24-1119.38-1890.5-1592.26l-64.98 84.66zM24689.19 26583.17c757.06 704.62 1549.14 1376.12 2321.53 2068.56 109.31 98.69 273.3-70.27 162.11-161.79-799.9-664.03-1582.26-1350.2-2393.07-1997.05l-90.57 90.28zM24598.91 25898.84c784.57 630.9 1559.14 1273.99 2338.09 1908.95 121.19 96.51 255.51-74.62 131.2-168.96-801.13-609.67-1606.62-1211.83-2403.07-1826.17l-66.21 86.18zM24368.74 24999.35c698.35 700.24 1462.01 1298.05 2246.58 1895.83 105.57 82.16 225.83-108.69 105.57-182.41-817.37-505.65-1557.91-1148.73-2245.35-1820.55l-106.81 107.13zM24278.17 24241.02c697.41 801.42 1489.81 1542.9 2329.32 2191.93 129.93 100.86 271.13-77.78 138.99-180.85-845.13-648.37-1626.3-1345.2-2375.57-2103.21l-92.74 92.13zM24270.66 23612c681.82 731.77 1415.76 1417.98 2175.98 2065.41 132.14 110.57 319.51-84.95 187.41-187.08-792.36-618.73-1539.46-1282.1-2262.2-1978.9l-101.19 100.57zM24148.24 22887.41c661.2 815.16 1572.26 1555.08 2449.28 2130.06 154.28 100.57 283.27-137.72 142.11-243.95-850.5-643.08-1647.24-1335.81-2478.97-1998.87l-112.42 112.75zM24228.8 22381.72c700.56 619.05 1402.68 1236.84 2103.21 1854.91l139.93-138.95c-710.53-608.76-1422.32-1216.22-2134.12-1824.32l-109.02 108.36zM24248.48 21921.99c199.59 264.86 512.54 443.82 775.84 640.58 336.07 252.97 672.11 503.48 1009.13 754.27 133.37 100.9 271.09-129.6 131.16-225.83-323.86-224.23-649.93-448.17-975.06-671.82-283.31-195.49-565.34-449.73-893.59-559.04l-47.48 61.83zM24138.23 21202.4c619.34 634.93 1315.84 1177.47 2052.94 1666.56 139.93 92.45 275.48-137.72 132.1-226.11-739.27-454.11-1427.94-976.04-2096.65-1528.55l-88.39 88.1zM24013.92 20336c635.58 622.46 1328.64 1166.85 2019.52 1727.77 127.75 102.13 273.27-86.18 137.72-178.64-729.27-489.41-1396.09-1072.84-2054.79-1652.21l-102.46 103.07zM23850.91 19370.25c678.67 639.02 1357.38 1279.93 2031.66 1924.57 119.02 113.4 304.22-71.18 180.56-180.52-699.62-618.07-1395.8-1242.74-2091.07-1864.91l-121.16 120.87zM23792.48 18721.55c653.41 595.31 1337.41 1160.29 2007.35 1739.66 126.81 108.4 310.74-79.95 181.75-183.02-693.97-562.8-1380.46-1142.17-2090.09-1686.57l-99.01 129.93zM23871.82 18146.24c633.4 630.29 1299.9 1246.19 2025.14 1770.61 135.55 98.36 262.03-125.25 129.93-221.77-707.41-528.16-1399.24-1056.28-2040.43-1663.77l-114.63 114.92zM23934.59 17446.95c669.94 630.58 1363 1232.78 2086.68 1802.43 148.96 116.81 314.18-94.92 159.9-207.99-730.53-544.39-1441.06-1115.32-2128.83-1713.13l-117.75 118.69zM23850.91 16804.48c267.65 363.87 651.2 637.17 1004.74 912 398.85 310.45 809.87 614.34 1244.96 872.97 145.55 84.34 268.92-133.37 131.16-223.94-395.4-260.8-798.63-506.92-1183.42-784.9-380.11-272.32-730.53-607.78-1140.29-833.57l-57.15 57.44zM23764.69 15993.38c556.57 703.97 1273.99 1303.96 2070.44 1723.1 138.95 71.83 260.15-135.87 122.43-211.76-792.4-426.93-1489.81-938.53-2135.39-1569.11l-57.48 57.77zM23469.53 15364.04c834.22 696.79 1673.77 1391.12 2559.53 2022.02 135.55 96.48 265.47-127.43 131.2-224.27-873.91-620.28-1754.05-1230.57-2598.27-1891.44l-92.45 93.69zM23736.27 14959.25c616.84 618.73 1288.99 1159.39 2023.87 1631.91 142.11 89.95 277.69-140.55 131.2-226.44-733.65-433.49-1422.36-934.79-2062.62-1499.48l-92.45 94.01zM24461.19 14937.07c423.2 355.43 852.96 706.8 1283.66 1056.31 123.37 98.36 262.03-78.39 133.37-172.73-446.32-331.07-892.64-657.76-1344.26-978.21l-72.77 94.63zM25108 14945.19c303.89 203.03 604.99 418.85 868.29 674.03l95.86-125.25c-300.74-219.88-594.95-444.15-911.35-641.2l-52.8 92.42zM25532.15 14797.18c156.49 82.12 326.07 152.4 472.56 252.64 90.57 59.65 172.08-108.36 60.6-141.16-163.96-47.48-324.84-132.1-480.35-201.76l-52.8 90.28zM26035.62 14678.48l68.43 141.49c52.77 106.81 215.79 12.18 160.84-94.34l-72.77-139.6c-52.8-106.81-208.32-14.68-156.49 92.45zM29326.96 27306.2c113.37 162.4 256.7 289.21 416.31 409.17l81.51-137.76c-173.02-73.72-302.95-188.97-422.87-331.07l-74.95 59.65zM29299.16 26663.45l93.69 120.87 90.57 107.13 182.73 213.61c122.43 141.49 246.74 283.6 371.34 422.91 90.28 102.42 250.18-53.42 150.88-151.78-140.87-139.93-280.8-281.09-422.91-418.85-108.07-103.07-237.06-283.6-374.78-345.75-99.01-45.27-209.26 55.92-96.84 121.81l5.33-69.95zM29117.37 26116.55c379.17 394.46 804.58 703.06 1227.45 1043.81 103.69 82.12 218.32-82.16 108.07-139.93-465.06-244.56-879.2-620.28-1251.51-987.6l-84.01 83.72zM28970.88 25413.81c489.41 534.72 1033.52 1058.49 1574.47 1539.13l145.55-145.84c-512.25-511.92-1071.93-1021.3-1635.07-1477.3l-84.95 84.01zM28933.4 24721.7c414.47 624.67 966.36 1181.53 1485.42 1719.98 106.84 108.4 279.86-61.83 169.61-169.29-538.78-523.16-1022.57-1102.52-1563.52-1622.53l-91.51 71.83zM28997.44 24031.47c212.71 310.45 521.27 567.15 782.36 840.13 289.54 304.22 576.25 614.67 854.84 928.89 89.34 100.57 240.18-49.65 147.76-148.38-285.48-307.95-578.46-609.67-877.02-907.94-264.57-262.65-533.45-570.6-853.9-768.3l-54.04 55.6zM28776 23137.88c528.77 606.55 1108.43 1154.35 1715.6 1682.83l82.45-107.13c-632.46-486.62-1203.06-1045.37-1732.16-1641.59l-65.89 65.89zM28538 22456.05c631.23 589.7 1237.13 1215.89 1891.77 1783.08 106.81 92.78 262.36-57.44 157.4-158.34-624.63-599.99-1305.52-1146.56-1953.27-1721.54l-95.9 96.8zM28470.84 21814.86c576.25 531.89 1161.24 1056.28 1724.37 1600.67l139.93-139.93c-598.43-507.5-1176.86-1039.43-1763.11-1561.31l-101.19 100.57zM28393.72 21044.35c569.65 630.9 1173.41 1232.74 1759.63 1846.79l121.19-120.87c-598.43-604.37-1183.42-1222.16-1798.37-1807.43l-82.45 81.51zM28466.17 20477.16c651.2 690.23 1304.57 1380.79 1959.22 2071.06l135.58-135.58c-666.82-678.05-1332.08-1353.61-1999.84-2029.16l-94.95 93.69zM28711.96 20019.6c547.51 542.51 1129.38 1043.81 1695.63 1563.2l90.57-117.13c-611.51-453.79-1176.86-980.06-1730.89-1501.66l-55.31 55.6zM28569.86 19189.44c649.02 497.21 1236.18 1058.16 1774.96 1672.5 94.95 106.81 258.91-55.89 157.73-158.05-576.25-594.05-1204.33-1127.78-1875.21-1613.14l-57.48 98.69zM28468.67 18495.11c558.46 649.02 1188.71 1208.1 1878.32 1710.96 145.55 104.92 294.21-141.2 142.11-243.95-687.41-460.35-1327.37-990.06-1932.36-1555.7l-88.07 88.68zM28600.77 18010.08c536.6 476.91 1087.52 941.03 1607.56 1432.33 103.69 96.19 257.68-67.77 153.05-152.4-565.02-443.21-1107.2-920.12-1657.21-1380.5l-103.4 100.57zM28815.65 17371.38c482.56 509.71 1000.39 979.44 1541.34 1427.94 101.51 84.01 248.01-64.04 145.55-145.84-550.95-436.03-1073.17-902.03-1582.26-1386.73l-104.63 104.63zM28739.47 16457.79c490.32 543.78 1021.59 1055.05 1529.46 1581.03 108.07 113.37 285.48-63.1 171.79-172.4-530.98-502.86-1045.7-1029.13-1594.15-1516.05l-107.1 107.42zM29368.78 16679.23c-156.46-145.84-413.2-376.01-412.25-605.9l-134.31 55.27c414.14 455.71 901.38 881.41 1373 1277.75 119.93 100.57 291.71-63.71 174.9-174.9-454.73-426.97-945.09-864.23-1452.01-1226.22l-79.33 136.2c188.35 123.04 334.81 404.46 509.09 558.13l20.91-20.33zM28944.64 15474.9c495.68 542.84 1022.25 1050.37 1533.55 1580.09 93.69 98.69 248.91-63.1 147.72-148.05-564.07-468.18-1081.9-996.33-1591-1522.28l-90.28 90.24zM29038.03 15029.52c502.53 462.27 1024.75 906.09 1522.93 1374.27 102.42 96.48 258.91-68.1 152.07-151.82-535.62-426.93-1052.22-879.49-1585.67-1310.52l-89.34 88.07zM29096.46 14452.37c403.52 560.63 915.73 1018.8 1477.59 1415.15 116.84 82.78 238-117.13 113.4-192.7-568.46-351.69-1044.43-805.19-1480.75-1307.11l-110.25 84.66zM29405.02 14166.56c388.84 413.23 808.93 792.69 1203.1 1201.86 122.43 125.54 320.74-84.34 189.58-188.68-443.82-355.43-866.08-742.06-1314.29-1090.96l-78.39 77.78zM29909.73 14084.44c241.12 275.48 539.72 501.59 785.51 772.68 95.9 104.96 252.35-70.27 125.58-162.73-295.16-213.61-548.45-484.7-847.38-691.79l-63.71 81.83zM30196.15 13798.96c190.53 215.82 417.58 374.16 649.97 538.16 114.6 79.95 227.06-127.43 79.33-188.68-240.21-100.54-450.38-265.47-653.08-425.37l-76.22 75.89zM30734.93 13825.2c115.87 96.84 229.23 195.53 343.87 292.04l98.07-127.14c-120.25-90.24-239.23-180.52-360.43-268.92l-81.51 104.02zM31566.94 4579.05c140.87-261.45 277.69-523.77 413.23-788.96l-146.82-84.34c-129.93 267.36-258.91 536.28-384.46 805.19l118.04 68.1zM31799.32 5357.68c183.97-334.84 459.44-591.54 803.31-756.16l-64.04-110.86c-350.43 188.64-620.25 476.62-789.86 836.11l50.59 30.91zM33910.36 10148.46c266.71-174.25 534.39-349.48 802.04-524.39l-67.12-114.31c-265.51 178.64-530.04 356.99-794.28 533.77l59.36 104.92zM33793.55 10834.96c621.52-395.08 1277.1-696.79 1982.34-910.44l-36.53-131.16c-706.18 229.56-1376.12 543.45-2000.79 946.97l54.98 94.63zM16603.01 1908.33c126.81 223.94 255.47 448.17 382.28 672.11l92.45-53.71c-137.72-219.88-274.21-437.59-411.96-654.97l-62.77 36.57zM16580.83 61.21c394.46 931.06 788.96 1863.68 1183.42 2796.27l131.16-75.89C17492.22 1852.74 17089.93 926.68 16686.73 0l-105.9 61.21zM9588.74 7091.4c171.79 61.87 346.08 117.42 521.27 170.85l38.42-137.72c-179.58-40.92-356.99-80.6-537.51-113.4l-22.18 80.28zM9682.46 6224.99c309.51 133.37 619.34 264.24 928.85 396.34 103.4 43.13 163.05-98.69 59.33-142.11-311.68-126.81-622.46-254.24-935.41-382.28l-52.77 128.04zM18339.56 9176.52c-74.01 123.04-71.83 273.27 17.5 391.02 79.3 100.57 203.93 71.22 273.27-31.53 183.02-266.74-236.73-486.91-395.4-221.77-67.45 113.37 103.36 211.76 176.14 102.75l7.83-207.38-79.33-33.09zM17035.89 9339.25c-159.57 98.07 124.64 344.81 207.38 137.72l-115.87-31.53-51.83-52.8-39.69-53.38zM26430.08 9400.46c-255.47 144.28-58.39 606.22 227.09 493.76 276.38-113.37 84.95-602.16-203.97-504.09-157.4 55.31-57.15 291.71 88.07 209.88 0 0 118.08 120.87-10.91 119.02-122.14-4.39-121.19-201.14-56.21-260.8l-44.07-57.77zM26414.79 11305.02l-36.53 123.04c-37.47 137.76 203.93 140.26 165.52 0l-35.26-123.04h-93.72zM30288.61 11144.8c-310.45 197.08-31.86 657.14 275.48 663.7l97.13-74.04c71.51-183.02 18.74-376.01-132.43-501.27l-153.05-18.74c-134.28 79.95-268.92 160.52-404.46 240.79-155.23 92.45-6.56 340.75 141.16 239.56 129.93-88.07 261.12-175.85 391.05-264.24h-127.75l106.81 209.26-187.08-96.51c-71.83-112.75-79.33-258.59 31.86-349.16l-38.71-49.36zM31445.78 23978.04c404.14-546.57 1394.85-419.14 1621.58 232.38l143.37-41.24c-267.65-751.45-1386.12-912-1824.61-226.11l59.65 34.97z"/><path class="fil0" d="M33116.11 24201.98c82.45-1047.87 1508.22-1189.65 2236.58-764.28 753.66 441.65 925.41 1571.64 118.98 2061.06l87.16 151.49c925.41-555.01 765.8-1859.01-116.81-2364.33-832.99-476.95-2318.41-236.12-2367.77 916.06h41.86z"/><path class="fil0" d="M35337.4 25498.77c592.78-322.95 1446.68-37.18 1656.88 634.64 233.62 745.54-508.77 1448.27-1227.12 1366.15-137.76-16.89-136.81 198.93 0 213.32 847.02 92.74 1699.98-770.22 1415.76-1633.18-249.24-755.83-1230.89-1057.84-1884.27-649.02l38.74 68.1z"/><path class="fil0" d="M34427.25 26975.45c-271.09-104.3-451.94 159.9-484.74 404.79-37.47 277.33 78.1 558.75 258.95 763.95 432.88 489.41 1188.71 486.91 1551.31-79.95 313.89-491.01 223.65-1209.98-330.75-1483.25-513.48-253.01-1229.62-36.86-1460.74 499.42-61.87 145.51 144.28 273.27 214.55 127.43 377.93-774.89 1671.56-555.01 1512.93 389.78-71.54 429.76-445.09 787.36-900.15 679.94-199.59-44.98-384.46-166.17-515.65-323.9-77.12-94.95-141.16-209.88-171.79-328.9-49.65-183.02-32.15-674.29 309.54-587.49l16.53-61.83z"/><path class="fil0" d="M34296.08 28162.93c-192.7 757.72-1154.68 1175.3-1816.82 739.27-143.34-94.3-278.92 137.76-135.55 230.21 789.86 509.71 1952.37-9.71 2029.49-959.8l-77.12-9.68zM15171.63 22316.16c-1271.52-32.51-2399.63 883.26-2727.88 2095.7-54.04 200.82 263.26 287.04 310.45 86.22 275.48-1152.83 1249.63-1941.13 2417.43-2054.5v-127.43zM12770.77 24879.75c-501.3-81.83-952.01-22.51-1280.26 417.26-305.12 408.52-296.39 942.91-18.74 1364.23 618.11 940.74 2192.54 426.97 2039.49-718.97-35.26-262.97-445.05-277.65-424.14 0 61.54 817.37-967.59 1090.67-1346.43 379.82-354.81-663.41 328.25-1442.33 1025.69-1410.8l4.39-31.53z"/><path class="fil0" d="M11895.92 26859.88c-800.81-656.82-1594.11 506.3-1193.09 1269.64 735.86 1401.09 2798.48 1270.22 3960.94 587.49 240.18-138.66 22.18-515.04-218-373.55-661.2 390.4-1425.77 561.25-2185.04 394.79-277.69-62.16-567.52-162.4-809.87-316.39-273.3-159.9-465.06-394.46-575.02-700.85-33.09-669.65 288.6-932.29 963.86-786.46l56.21-74.66zM13147.72 25535.62c143.05 402.58 649.02 570.63 1006.95 332.3l-90.28-151.46c-273.27 193.32-669.94 75.89-804.21-226.15l-112.46 45.3zM34439.42 24715.75l102.46 8.12c125.54-102.75-39.65-318.57-174.29-225.79-218 147.4-52.77 548.74 206.15 429.11 221.44-103.04 71.54-474.41-158.67-396.63-94.63 32.8-87.13 195.53 24.35 185.2zM32385.58 25395.69l2.17 131.2c.94 107.42 169.61 88.36 148.67-20.01l-25.3-129.6-125.54 18.41zM35970.76 26309.87l-24.03 117.13c-47.48 199.26 289.54 141.49 190.53-24.35l-59.65-107.46-106.84 14.68zM13837.34 24057.99c-118.98 70.27-245.79 131.81-289.83 271.09-38.42 128.08 14.35 257.07 137.72 312.95 238 102.13 537.83-113.04 385.73-370.11-128.99-215.5-451.61-24.97-336.04 194.91 78.39-145.26 81.51-197.08 9.97-155.88l59.36-1.85 24.35-39.36 69.33-133.37-60.6-78.39z"/></g><path class="fil0" d="M2382.52 36256.93H1327.33v2905.97h-260.51v-2905.97H13.81v-224.55h2368.71z"/><path id="_1" class="fil0" d="M3071.78 37230.72c82.99-139.42 189.8-246.56 319.73-322.88 129.17-75.6 271.38-113.76 424.4-113.76 245.36 0 427.98 70.45 547.76 210.64 119.82 140.15 180.45 350.75 181.86 631.81v1526.38h-251.85v-1527.83c-.72-207.7-44.8-362.53-129.93-463.79-85.17-102.02-221.58-152.65-409.25-152.65-155.88 0-294.47 49.91-414.97 148.99-120.54 99.77-210.02 234.09-267.76 402.87v1592.41h-251.16v-3302.24h251.16v1370.06z"/><path id="_2" class="fil0" d="M6083.58 39206.94c-194.87 0-370.25-48.42-527.58-146.02-157.36-97.6-279.32-233.36-366.66-408.01-87.31-173.93-131.34-369.13-131.34-585.6v-92.49c0-223.8 42.55-424.87 127.75-604.66 85.17-179.04 204.22-319.95 356.51-421.93 152.29-102.75 316.83-154.14 494.38-154.14 277.87 0 498 96.15 661.09 289.14 163.13 192.99 243.98 456.43 243.98 791.09v143.81H5309.87v49.18c0 264.17 74.33 484.3 223 660.44 148.7 175.38 335.6 263.44 561.54 263.44 134.93 0 254.75-24.93 357.96-75.6 103.94-50.63 197.74-131.34 282.18-242.13l158.78 122.53c-186.21 273.74-456.11 410.95-809.76 410.95zm-46.93-2192.69c-189.8 0-350.03 71.18-480.64 212.81-130.65 141.63-210.02 331.69-238.18 570.92h1372.75v-27.91c-7.25-223.07-70.02-405.08-188.39-545.23-118.37-140.15-273.56-210.6-465.53-210.6z"/><path id="_3" class="fil0" d="M8489.8 37056.07c-53.38-10.26-110.43-15.4-171.06-15.4-158.05 0-291.57 44.76-400.51 134.28-109.02 89.52-186.94 219.41-233.87 390.4v1597.56H7433.2v-2324.79h246.85l4.31 368.4c134.28-275.19 349.3-412.44 645.22-412.44 70.74 0 126.34 9.57 166.71 27.91l-6.49 234.09z"/><path id="_4" class="fil0" d="M9737.69 39206.94c-194.87 0-370.25-48.42-527.58-146.02-157.33-97.6-279.32-233.36-366.63-408.01-87.34-173.93-131.38-369.13-131.38-585.6v-92.49c0-223.8 42.58-424.87 127.75-604.66 85.17-179.04 204.26-319.95 356.51-421.93 152.29-102.75 316.87-154.14 494.42-154.14 277.83 0 497.97 96.15 661.09 289.14 163.09 192.99 243.95 456.43 243.95 791.09v143.81H8963.98v49.18c0 264.17 74.33 484.3 223.03 660.44 148.67 175.38 335.57 263.44 561.5 263.44 134.93 0 254.75-24.93 357.96-75.6 103.94-50.63 197.77-131.34 282.22-242.13l158.74 122.53c-186.21 273.74-456.11 410.95-809.76 410.95zm-46.9-2192.69c-189.84 0-350.06 71.18-480.68 212.81-130.65 141.63-210.02 331.69-238.18 570.92h1372.75v-27.91c-7.25-223.07-70.02-405.08-188.39-545.23-118.37-140.15-273.52-210.6-465.49-210.6z"/><path id="_5" class="fil0" d="M13585.96 39162.9c-25.26-73.39-41.86-181.25-48.35-324.37-88.76 117.42-202.09 208.43-339.95 272.25-137.14 63.86-282.91 96.15-436.65 96.15-219.41 0-397.65-62.37-533.34-187.12-136.42-124.78-204.26-282.54-204.26-473.32 0-226.04 92.38-405.8 277.87-537.18 185.49-132.07 443.86-198.14 775.15-198.14h459.01v-264.89c0-166.61-50.52-297.95-151.56-393.34-100.32-95.43-247.57-143.12-440.96-143.12-176.14 0-321.9 45.52-437.37 137.25-115.47 90.97-173.24 201.07-173.24 329.48l-254.02-2.21c0-184.18 84.44-343.43 254.02-478.43 168.89-134.31 376.77-201.83 623.58-201.83 255.51 0 456.14 64.58 603.4 194.48 147.9 129.89 223.72 310.41 227.31 543.05v1099.99c0 225.32 23.81 394.1 70.02 505.61v25.7h-270.66zm-794.61-180.52c168.89 0 319.73-41.82 453.24-125.47 132.79-82.92 230.25-194.48 290.84-333.9v-513.7h-452.52c-252.61 2.94-449.66 49.91-592.56 141.63-142.14 91-212.89 216.47-212.89 376.45 0 130.62 46.9 239.23 142.18 325.82 95.28 85.86 219.37 129.17 371.7 129.17z"/><path id="_6" class="fil0" d="M15516.58 37056.07c-53.38-10.26-110.43-15.4-171.06-15.4-158.05 0-291.57 44.76-400.55 134.28-108.98 89.52-186.9 219.41-233.83 390.4v1597.56h-251.16v-2324.79h246.85l4.31 368.4c134.28-275.19 349.3-412.44 645.22-412.44 70.71 0 126.34 9.57 166.71 27.91l-6.49 234.09z"/><path id="_7" class="fil0" d="M16764.47 39206.94c-194.87 0-370.25-48.42-527.58-146.02-157.36-97.6-279.32-233.36-366.66-408.01-87.31-173.93-131.34-369.13-131.34-585.6v-92.49c0-223.8 42.55-424.87 127.75-604.66 85.17-179.04 204.22-319.95 356.51-421.93 152.29-102.75 316.83-154.14 494.38-154.14 277.87 0 498 96.15 661.09 289.14 163.13 192.99 243.98 456.43 243.98 791.09v143.81h-1631.84v49.18c0 264.17 74.33 484.3 223 660.44 148.7 175.38 335.6 263.44 561.54 263.44 134.93 0 254.75-24.93 357.96-75.6 103.94-50.63 197.74-131.34 282.18-242.13l158.78 122.53c-186.21 273.74-456.11 410.95-809.76 410.95zm-46.93-2192.69c-189.8 0-350.03 71.18-480.64 212.81-130.65 141.63-210.02 331.69-238.18 570.92h1372.75v-27.91c-7.25-223.07-70.02-405.08-188.39-545.23-118.37-140.15-273.56-210.6-465.53-210.6z"/><path id="_8" class="fil0" d="M19408.16 36838.11l8.66 396.27c85.89-143.08 192.7-252.43 321.18-327.27 128.44-75.6 269.93-113.04 425.08-113.04 245.4 0 427.98 70.45 547.84 210.64 119.78 140.15 180.41 350.75 181.83 631.81v1526.38h-251.85v-1527.83c-1.45-207.7-44.76-362.53-129.93-463.79-85.17-102.02-221.55-152.65-409.25-152.65-156.6 0-295.16 49.91-415.7 148.99-120.51 99.77-209.3 234.09-267.03 402.87v1592.41h-251.88v-2324.79h241.05z"/><path id="_9" class="fil0" d="M21407.31 37966.04c0-223.83 42.62-424.9 127.75-603.98 85.21-179.76 205.71-319.18 361.62-418.27 155.88-99.81 331.98-149.72 529.75-149.72 303.82 0 550.66 108.62 739.78 325.85 189.08 217.2 283.6 504.85 283.6 863.69v53.6c0 225.28-43.31 427.08-128.44 607.6-85.17 179.8-204.95 318.5-360.17 416.1-155.15 97.6-331.98 146.02-530.44 146.02-303.13 0-549.98-108.62-739.05-325.82-189.8-217.24-284.39-504.89-284.39-863.72v-51.36zm253.37 71.9c0 278.12 70.71 507.06 212.92 685.38 141.42 178.35 326.9 267.87 557.15 267.87 228.07 0 412.83-89.52 554.29-267.87 142.18-178.31 212.92-413.85 212.92-706.65v-49.18c0-178.31-32.47-341.22-97.46-488.73-64.95-147.51-155.88-261.99-272.79-342.71-116.95-81.47-250.47-121.81-401.27-121.81-225.93 0-409.97 90.24-552.15 270.04-142.18 179.8-213.61 415.34-213.61 706.69v46.97z"/><path id="_10" class="fil0" d="M25176.94 39162.9v-2113.43h-381.09v-211.36h381.09v-238.47c0-248.04 65.67-441.03 198.46-577.52 132.79-137.25 319-205.49 560.05-205.49 189.11 0 383.99 41.82 583.9 126.23l-42.58 220.86c-171.79-75.56-346.44-113.73-523.99-113.73-348.61 0-522.5 184.18-522.5 553.31v234.81h534.75v211.36h-534.75v2113.43h-253.33zm1479.55 0h-253.33v-2324.79h253.33v2324.79z"/><path id="_11" class="fil0" d="M27634.41 39162.9h-254.02v-3302.24h254.02z"/><path id="_12" class="fil0" d="M28551.74 36838.11l7.94 377.21c85.17-140.18 190.56-245.83 317.55-315.56 127.03-70.45 267.76-105.68 422.95-105.68 360.86 0 589.66 150.44 687.08 451.32 81.58-144.57 191.25-256.12 327.67-333.9 137.1-78.5 287.98-117.42 452.52-117.42 490.76 0 740.5 272.25 750.61 816.75v1552.07h-253.33v-1532.25c-1.45-207.67-45.48-361.04-132.79-461.58-86.62-100.54-228.07-150.44-423.67-150.44-181.86 2.94-335.6 62.37-461.18 179.07-124.85 117.42-194.87 259.02-209.3 427.08v1538.12h-253.33v-1551.31c-1.41-198.86-47.62-347.85-138.59-445.45-90.93-98.33-230.94-147.51-420.01-147.51-158.78 0-295.92 46.25-409.97 138.7-114.02 92.45-198.46 229.7-254.02 411.67v1593.89h-253.33V36838.1h243.22z"/><path id="_13" class="fil0" d="M33528.08 38572.92c0-127.72-49.8-230.43-150.84-307.48-101.04-77.81-252.61-138.7-455.42-182.01-203.5-44.03-360.86-93.94-472.74-150.44-111.84-56.5-195.56-126.2-249.71-207.67-54.11-81.44-81.54-180.52-81.54-297.19 0-183.46 75.78-334.62 226.62-454.26 150.84-119.6 343.54-179.8 579.55-179.8 254.78 0 459.73 63.86 614.16 192.26 153.74 128.44 231.01 295.74 231.01 501.95h-253.33c0-135.76-56.32-248.77-168.16-339.05-111.92-90.24-253.33-135-423.67-135-166.71 0-300.23 37.44-401.31 113-100.28 75.6-150.84 173.2-150.84 293.53 0 116.7 41.9 206.94 125.62 270.8 83.68 63.82 236.7 121.81 459.01 175.38 222.31 52.84 388.3 109.34 498.73 169.5 111.12 60.2 192.7 132.83 246.85 217.24 53.38 84.37 80.1 186.39 80.1 306.72 0 195.96-77.96 353-233.83 470.39-155.91 117.42-358.73 176.14-609.88 176.14-266.31 0-482.09-65.31-648.12-196.69-165.26-131.34-248.26-297.19-248.26-498.26h253.3c10.15 151.17 72.19 268.59 187.7 352.96 114.74 84.41 266.27 126.23 455.38 126.23 176.1 0 318.32-39.61 427.26-118.15 108.26-79.26 162.4-179.04 162.4-300.12z"/><path id="_14" class="fil0" d="M36129.9 38793.05l667.58-1954.94h272.83l-976.51 2718.85-51.21 120.36c-124.89 282.51-319.04 423.42-581.03 423.42-60.6 0-125.54-10.29-194.84-30.08l-2.17-212.09 131.34 13.23c124.13 0 224.45-30.84 300.99-93.21 77.2-62.37 142.18-169.5 195.56-321.43l112.6-314.07-863.22-2304.97h277.14l710.93 1954.94z"/><path id="_15" class="fil0" d="M38321.79 39206.94c-194.87 0-370.25-48.42-527.58-146.02-157.33-97.6-279.32-233.36-366.63-408.01-87.34-173.93-131.34-369.13-131.34-585.6v-92.49c0-223.8 42.55-424.87 127.72-604.66 85.17-179.04 204.26-319.95 356.55-421.93 152.25-102.75 316.83-154.14 494.38-154.14 277.83 0 497.97 96.15 661.09 289.14 163.09 192.99 243.95 456.43 243.95 791.09v143.81h-1631.84v49.18c0 264.17 74.37 484.3 223.03 660.44 148.67 175.38 335.6 263.44 561.5 263.44 134.97 0 254.75-24.93 357.96-75.6 103.94-50.63 197.77-131.34 282.22-242.13l158.74 122.53c-186.18 273.74-456.11 410.95-809.76 410.95zm-46.9-2192.69c-189.8 0-350.03 71.18-480.68 212.81-130.62 141.63-210.02 331.69-238.18 570.92h1372.75v-27.91c-7.21-223.07-69.98-405.08-188.39-545.23-118.37-140.15-273.52-210.6-465.49-210.6z"/><path id="_16" class="fil0" d="M40064.79 36243.7v594.41h473.47v211.36h-473.47v1549.86c0 129.13 23.09 225.28 68.57 288.38 46.21 63.1 122.68 94.66 229.52 94.66 42.55 0 110.43-7.32 204.95-21.27l10.84 209.88c-66.4 23.48-156.64 35.95-270.66 35.95-173.24 0-299.51-51.36-378.19-153.38-79.37-102.75-118.37-253.19-118.37-452.77v-1551.31h-421.5v-211.36h421.5v-594.41h253.33z"/><path id="_17" class="fil0" d="M42054.59 39008.8c0-49.91 15.87-92.45 47.62-127.68 31.75-35.23 75.78-52.84 132.1-52.84 56.28 0 101.01 17.61 132.76 52.84 32.51 35.23 49.11 77.78 49.11 127.68 0 49.91-16.6 91-49.11 123.3-31.75 32.26-76.47 48.42-132.76 48.42-56.32 0-100.35-16.16-132.1-48.42-31.75-32.29-47.62-73.39-47.62-123.3zm4.31-1985.75c0-49.91 15.91-92.45 47.66-127.68 31.75-35.23 75.78-52.84 132.07-52.84 56.32 0 101.04 17.61 132.79 52.84 32.47 35.23 49.11 77.78 49.11 127.68 0 49.91-16.64 91-49.11 123.26-31.75 32.29-76.47 48.46-132.79 48.46-56.28 0-100.32-16.16-132.07-48.46-31.75-32.26-47.66-73.35-47.66-123.26z"/><path id="_18" class="fil0" d="M42992.83 37897.04c0-311.86 38.96-615.68 118.37-909.93 78.68-294.29 194.11-563.6 346.44-807.95 152.25-244.38 316.07-419.76 490.76-525.44l61.32 173.93c-93.11 67.52-185.45 165.84-277.11 294.25-91.66 129.17-173.2 282.54-245.4 460.13-71.47 177.59-129.93 377.17-174.65 598.79-44.03 220.9-66.4 472.6-66.4 752.93 0 299.4 33.92 587.78 100.28 864.45 67.16 275.91 159.5 520.29 276.42 731.62 116.95 211.33 245.43 369.85 386.85 476.26l-61.32 165.12c-179-108.62-344.99-284.72-497.28-527.65-152.29-242.9-266.31-510-343.54-801.31-76.51-292.08-114.74-606.88-114.74-945.2z"/><path id="_19" class="fil0" d="M44383.55 39008.8c0-49.91 15.91-92.45 47.66-127.68 31.78-35.23 75.78-52.84 132.07-52.84 56.28 0 101.04 17.61 132.83 52.84 32.47 35.23 49.07 77.78 49.07 127.68 0 49.91-16.6 91-49.07 123.3-31.78 32.26-76.54 48.42-132.83 48.42-56.28 0-100.28-16.16-132.07-48.42-31.75-32.29-47.66-73.39-47.66-123.3z"/><path id="_20" class="fil0" d="M45417.8 39008.8c0-49.91 15.87-92.45 47.66-127.68 31.75-35.23 75.78-52.84 132.07-52.84 56.28 0 101.04 17.61 132.79 52.84 32.47 35.23 49.07 77.78 49.07 127.68 0 49.91-16.6 91-49.07 123.3-31.75 32.26-76.51 48.42-132.79 48.42-56.28 0-100.32-16.16-132.07-48.42-31.78-32.29-47.66-73.39-47.66-123.3z"/><path id="_21" class="fil0" d="M46452 39008.8c0-49.91 15.91-92.45 47.66-127.68 31.78-35.23 75.78-52.84 132.07-52.84 56.28 0 101.04 17.61 132.83 52.84 32.47 35.23 49.07 77.78 49.07 127.68 0 49.91-16.6 91-49.07 123.3-31.78 32.26-76.54 48.42-132.83 48.42-56.28 0-100.28-16.16-132.07-48.42-31.75-32.29-47.66-73.39-47.66-123.3z"/><path id="_22" class="fil1 str0" d="M2382.52 36256.93H1327.33v2905.97h-260.51v-2905.97H13.81v-224.55h2368.71z"/><path id="_23" class="fil1 str0" d="M3071.78 37230.72c82.99-139.42 189.8-246.56 319.73-322.88 129.17-75.6 271.38-113.76 424.4-113.76 245.36 0 427.98 70.45 547.76 210.64 119.82 140.15 180.45 350.75 181.86 631.81v1526.38h-251.85v-1527.83c-.72-207.7-44.8-362.53-129.93-463.79-85.17-102.02-221.58-152.65-409.25-152.65-155.88 0-294.47 49.91-414.97 148.99-120.54 99.77-210.02 234.09-267.76 402.87v1592.41h-251.16v-3302.24h251.16v1370.06z"/><path id="_24" class="fil1 str0" d="M6083.58 39206.94c-194.87 0-370.25-48.42-527.58-146.02-157.36-97.6-279.32-233.36-366.66-408.01-87.31-173.93-131.34-369.13-131.34-585.6v-92.49c0-223.8 42.55-424.87 127.75-604.66 85.17-179.04 204.22-319.95 356.51-421.93 152.29-102.75 316.83-154.14 494.38-154.14 277.87 0 498 96.15 661.09 289.14 163.13 192.99 243.98 456.43 243.98 791.09v143.81H5309.87v49.18c0 264.17 74.33 484.3 223 660.44 148.7 175.38 335.6 263.44 561.54 263.44 134.93 0 254.75-24.93 357.96-75.6 103.94-50.63 197.74-131.34 282.18-242.13l158.78 122.53c-186.21 273.74-456.11 410.95-809.76 410.95zm-46.93-2192.69c-189.8 0-350.03 71.18-480.64 212.81-130.65 141.63-210.02 331.69-238.18 570.92h1372.75v-27.91c-7.25-223.07-70.02-405.08-188.39-545.23-118.37-140.15-273.56-210.6-465.53-210.6z"/><path id="_25" class="fil1 str0" d="M8489.8 37056.07c-53.38-10.26-110.43-15.4-171.06-15.4-158.05 0-291.57 44.76-400.51 134.28-109.02 89.52-186.94 219.41-233.87 390.4v1597.56H7433.2v-2324.79h246.85l4.31 368.4c134.28-275.19 349.3-412.44 645.22-412.44 70.74 0 126.34 9.57 166.71 27.91l-6.49 234.09z"/><path id="_26" class="fil1 str0" d="M9737.69 39206.94c-194.87 0-370.25-48.42-527.58-146.02-157.33-97.6-279.32-233.36-366.63-408.01-87.34-173.93-131.38-369.13-131.38-585.6v-92.49c0-223.8 42.58-424.87 127.75-604.66 85.17-179.04 204.26-319.95 356.51-421.93 152.29-102.75 316.87-154.14 494.42-154.14 277.83 0 497.97 96.15 661.09 289.14 163.09 192.99 243.95 456.43 243.95 791.09v143.81H8963.98v49.18c0 264.17 74.33 484.3 223.03 660.44 148.67 175.38 335.57 263.44 561.5 263.44 134.93 0 254.75-24.93 357.96-75.6 103.94-50.63 197.77-131.34 282.22-242.13l158.74 122.53c-186.21 273.74-456.11 410.95-809.76 410.95zm-46.9-2192.69c-189.84 0-350.06 71.18-480.68 212.81-130.65 141.63-210.02 331.69-238.18 570.92h1372.75v-27.91c-7.25-223.07-70.02-405.08-188.39-545.23-118.37-140.15-273.52-210.6-465.49-210.6z"/><path id="_27" class="fil1 str0" d="M13585.96 39162.9c-25.26-73.39-41.86-181.25-48.35-324.37-88.76 117.42-202.09 208.43-339.95 272.25-137.14 63.86-282.91 96.15-436.65 96.15-219.41 0-397.65-62.37-533.34-187.12-136.42-124.78-204.26-282.54-204.26-473.32 0-226.04 92.38-405.8 277.87-537.18 185.49-132.07 443.86-198.14 775.15-198.14h459.01v-264.89c0-166.61-50.52-297.95-151.56-393.34-100.32-95.43-247.57-143.12-440.96-143.12-176.14 0-321.9 45.52-437.37 137.25-115.47 90.97-173.24 201.07-173.24 329.48l-254.02-2.21c0-184.18 84.44-343.43 254.02-478.43 168.89-134.31 376.77-201.83 623.58-201.83 255.51 0 456.14 64.58 603.4 194.48 147.9 129.89 223.72 310.41 227.31 543.05v1099.99c0 225.32 23.81 394.1 70.02 505.61v25.7h-270.66zm-794.61-180.52c168.89 0 319.73-41.82 453.24-125.47 132.79-82.92 230.25-194.48 290.84-333.9v-513.7h-452.52c-252.61 2.94-449.66 49.91-592.56 141.63-142.14 91-212.89 216.47-212.89 376.45 0 130.62 46.9 239.23 142.18 325.82 95.28 85.86 219.37 129.17 371.7 129.17z"/><path id="_28" class="fil1 str0" d="M15516.58 37056.07c-53.38-10.26-110.43-15.4-171.06-15.4-158.05 0-291.57 44.76-400.55 134.28-108.98 89.52-186.9 219.41-233.83 390.4v1597.56h-251.16v-2324.79h246.85l4.31 368.4c134.28-275.19 349.3-412.44 645.22-412.44 70.71 0 126.34 9.57 166.71 27.91l-6.49 234.09z"/><path id="_29" class="fil1 str0" d="M16764.47 39206.94c-194.87 0-370.25-48.42-527.58-146.02-157.36-97.6-279.32-233.36-366.66-408.01-87.31-173.93-131.34-369.13-131.34-585.6v-92.49c0-223.8 42.55-424.87 127.75-604.66 85.17-179.04 204.22-319.95 356.51-421.93 152.29-102.75 316.83-154.14 494.38-154.14 277.87 0 498 96.15 661.09 289.14 163.13 192.99 243.98 456.43 243.98 791.09v143.81h-1631.84v49.18c0 264.17 74.33 484.3 223 660.44 148.7 175.38 335.6 263.44 561.54 263.44 134.93 0 254.75-24.93 357.96-75.6 103.94-50.63 197.74-131.34 282.18-242.13l158.78 122.53c-186.21 273.74-456.11 410.95-809.76 410.95zm-46.93-2192.69c-189.8 0-350.03 71.18-480.64 212.81-130.65 141.63-210.02 331.69-238.18 570.92h1372.75v-27.91c-7.25-223.07-70.02-405.08-188.39-545.23-118.37-140.15-273.56-210.6-465.53-210.6z"/><path id="_30" class="fil1 str0" d="M19408.16 36838.11l8.66 396.27c85.89-143.08 192.7-252.43 321.18-327.27 128.44-75.6 269.93-113.04 425.08-113.04 245.4 0 427.98 70.45 547.84 210.64 119.78 140.15 180.41 350.75 181.83 631.81v1526.38h-251.85v-1527.83c-1.45-207.7-44.76-362.53-129.93-463.79-85.17-102.02-221.55-152.65-409.25-152.65-156.6 0-295.16 49.91-415.7 148.99-120.51 99.77-209.3 234.09-267.03 402.87v1592.41h-251.88v-2324.79h241.05z"/><path id="_31" class="fil1 str0" d="M21407.31 37966.04c0-223.83 42.62-424.9 127.75-603.98 85.21-179.76 205.71-319.18 361.62-418.27 155.88-99.81 331.98-149.72 529.75-149.72 303.82 0 550.66 108.62 739.78 325.85 189.08 217.2 283.6 504.85 283.6 863.69v53.6c0 225.28-43.31 427.08-128.44 607.6-85.17 179.8-204.95 318.5-360.17 416.1-155.15 97.6-331.98 146.02-530.44 146.02-303.13 0-549.98-108.62-739.05-325.82-189.8-217.24-284.39-504.89-284.39-863.72v-51.36zm253.37 71.9c0 278.12 70.71 507.06 212.92 685.38 141.42 178.35 326.9 267.87 557.15 267.87 228.07 0 412.83-89.52 554.29-267.87 142.18-178.31 212.92-413.85 212.92-706.65v-49.18c0-178.31-32.47-341.22-97.46-488.73-64.95-147.51-155.88-261.99-272.79-342.71-116.95-81.47-250.47-121.81-401.27-121.81-225.93 0-409.97 90.24-552.15 270.04-142.18 179.8-213.61 415.34-213.61 706.69v46.97z"/><path id="_32" class="fil1 str0" d="M25176.94 39162.9v-2113.43h-381.09v-211.36h381.09v-238.47c0-248.04 65.67-441.03 198.46-577.52 132.79-137.25 319-205.49 560.05-205.49 189.11 0 383.99 41.82 583.9 126.23l-42.58 220.86c-171.79-75.56-346.44-113.73-523.99-113.73-348.61 0-522.5 184.18-522.5 553.31v234.81h534.75v211.36h-534.75v2113.43h-253.33zm1479.55 0h-253.33v-2324.79h253.33v2324.79z"/><path id="_33" class="fil1 str0" d="M27634.41 39162.9h-254.02v-3302.24h254.02z"/><path id="_34" class="fil1 str0" d="M28551.74 36838.11l7.94 377.21c85.17-140.18 190.56-245.83 317.55-315.56 127.03-70.45 267.76-105.68 422.95-105.68 360.86 0 589.66 150.44 687.08 451.32 81.58-144.57 191.25-256.12 327.67-333.9 137.1-78.5 287.98-117.42 452.52-117.42 490.76 0 740.5 272.25 750.61 816.75v1552.07h-253.33v-1532.25c-1.45-207.67-45.48-361.04-132.79-461.58-86.62-100.54-228.07-150.44-423.67-150.44-181.86 2.94-335.6 62.37-461.18 179.07-124.85 117.42-194.87 259.02-209.3 427.08v1538.12h-253.33v-1551.31c-1.41-198.86-47.62-347.85-138.59-445.45-90.93-98.33-230.94-147.51-420.01-147.51-158.78 0-295.92 46.25-409.97 138.7-114.02 92.45-198.46 229.7-254.02 411.67v1593.89h-253.33V36838.1h243.22z"/><path id="_35" class="fil1 str0" d="M33528.08 38572.92c0-127.72-49.8-230.43-150.84-307.48-101.04-77.81-252.61-138.7-455.42-182.01-203.5-44.03-360.86-93.94-472.74-150.44-111.84-56.5-195.56-126.2-249.71-207.67-54.11-81.44-81.54-180.52-81.54-297.19 0-183.46 75.78-334.62 226.62-454.26 150.84-119.6 343.54-179.8 579.55-179.8 254.78 0 459.73 63.86 614.16 192.26 153.74 128.44 231.01 295.74 231.01 501.95h-253.33c0-135.76-56.32-248.77-168.16-339.05-111.92-90.24-253.33-135-423.67-135-166.71 0-300.23 37.44-401.31 113-100.28 75.6-150.84 173.2-150.84 293.53 0 116.7 41.9 206.94 125.62 270.8 83.68 63.82 236.7 121.81 459.01 175.38 222.31 52.84 388.3 109.34 498.73 169.5 111.12 60.2 192.7 132.83 246.85 217.24 53.38 84.37 80.1 186.39 80.1 306.72 0 195.96-77.96 353-233.83 470.39-155.91 117.42-358.73 176.14-609.88 176.14-266.31 0-482.09-65.31-648.12-196.69-165.26-131.34-248.26-297.19-248.26-498.26h253.3c10.15 151.17 72.19 268.59 187.7 352.96 114.74 84.41 266.27 126.23 455.38 126.23 176.1 0 318.32-39.61 427.26-118.15 108.26-79.26 162.4-179.04 162.4-300.12z"/><path id="_36" class="fil1 str0" d="M36129.9 38793.05l667.58-1954.94h272.83l-976.51 2718.85-51.21 120.36c-124.89 282.51-319.04 423.42-581.03 423.42-60.6 0-125.54-10.29-194.84-30.08l-2.17-212.09 131.34 13.23c124.13 0 224.45-30.84 300.99-93.21 77.2-62.37 142.18-169.5 195.56-321.43l112.6-314.07-863.22-2304.97h277.14l710.93 1954.94z"/><path id="_37" class="fil1 str0" d="M38321.79 39206.94c-194.87 0-370.25-48.42-527.58-146.02-157.33-97.6-279.32-233.36-366.63-408.01-87.34-173.93-131.34-369.13-131.34-585.6v-92.49c0-223.8 42.55-424.87 127.72-604.66 85.17-179.04 204.26-319.95 356.55-421.93 152.25-102.75 316.83-154.14 494.38-154.14 277.83 0 497.97 96.15 661.09 289.14 163.09 192.99 243.95 456.43 243.95 791.09v143.81h-1631.84v49.18c0 264.17 74.37 484.3 223.03 660.44 148.67 175.38 335.6 263.44 561.5 263.44 134.97 0 254.75-24.93 357.96-75.6 103.94-50.63 197.77-131.34 282.22-242.13l158.74 122.53c-186.18 273.74-456.11 410.95-809.76 410.95zm-46.9-2192.69c-189.8 0-350.03 71.18-480.68 212.81-130.62 141.63-210.02 331.69-238.18 570.92h1372.75v-27.91c-7.21-223.07-69.98-405.08-188.39-545.23-118.37-140.15-273.52-210.6-465.49-210.6z"/><path id="_38" class="fil1 str0" d="M40064.79 36243.7v594.41h473.47v211.36h-473.47v1549.86c0 129.13 23.09 225.28 68.57 288.38 46.21 63.1 122.68 94.66 229.52 94.66 42.55 0 110.43-7.32 204.95-21.27l10.84 209.88c-66.4 23.48-156.64 35.95-270.66 35.95-173.24 0-299.51-51.36-378.19-153.38-79.37-102.75-118.37-253.19-118.37-452.77v-1551.31h-421.5v-211.36h421.5v-594.41h253.33z"/><path id="_39" class="fil1 str0" d="M42054.59 39008.8c0-49.91 15.87-92.45 47.62-127.68 31.75-35.23 75.78-52.84 132.1-52.84 56.28 0 101.01 17.61 132.76 52.84 32.51 35.23 49.11 77.78 49.11 127.68 0 49.91-16.6 91-49.11 123.3-31.75 32.26-76.47 48.42-132.76 48.42-56.32 0-100.35-16.16-132.1-48.42-31.75-32.29-47.62-73.39-47.62-123.3zm4.31-1985.75c0-49.91 15.91-92.45 47.66-127.68 31.75-35.23 75.78-52.84 132.07-52.84 56.32 0 101.04 17.61 132.79 52.84 32.47 35.23 49.11 77.78 49.11 127.68 0 49.91-16.64 91-49.11 123.26-31.75 32.29-76.47 48.46-132.79 48.46-56.28 0-100.32-16.16-132.07-48.46-31.75-32.26-47.66-73.35-47.66-123.26z"/><path id="_40" class="fil1 str0" d="M42992.83 37897.04c0-311.86 38.96-615.68 118.37-909.93 78.68-294.29 194.11-563.6 346.44-807.95 152.25-244.38 316.07-419.76 490.76-525.44l61.32 173.93c-93.11 67.52-185.45 165.84-277.11 294.25-91.66 129.17-173.2 282.54-245.4 460.13-71.47 177.59-129.93 377.17-174.65 598.79-44.03 220.9-66.4 472.6-66.4 752.93 0 299.4 33.92 587.78 100.28 864.45 67.16 275.91 159.5 520.29 276.42 731.62 116.95 211.33 245.43 369.85 386.85 476.26l-61.32 165.12c-179-108.62-344.99-284.72-497.28-527.65-152.29-242.9-266.31-510-343.54-801.31-76.51-292.08-114.74-606.88-114.74-945.2z"/><path id="_41" class="fil1 str0" d="M44383.55 39008.8c0-49.91 15.91-92.45 47.66-127.68 31.78-35.23 75.78-52.84 132.07-52.84 56.28 0 101.04 17.61 132.83 52.84 32.47 35.23 49.07 77.78 49.07 127.68 0 49.91-16.6 91-49.07 123.3-31.78 32.26-76.54 48.42-132.83 48.42-56.28 0-100.28-16.16-132.07-48.42-31.75-32.29-47.66-73.39-47.66-123.3z"/><path id="_42" class="fil1 str0" d="M45417.8 39008.8c0-49.91 15.87-92.45 47.66-127.68 31.75-35.23 75.78-52.84 132.07-52.84 56.28 0 101.04 17.61 132.79 52.84 32.47 35.23 49.07 77.78 49.07 127.68 0 49.91-16.6 91-49.07 123.3-31.75 32.26-76.51 48.42-132.79 48.42-56.28 0-100.32-16.16-132.07-48.42-31.78-32.29-47.66-73.39-47.66-123.3z"/><path id="_43" class="fil1 str0" d="M46452 39008.8c0-49.91 15.91-92.45 47.66-127.68 31.78-35.23 75.78-52.84 132.07-52.84 56.28 0 101.04 17.61 132.83 52.84 32.47 35.23 49.07 77.78 49.07 127.68 0 49.91-16.6 91-49.07 123.3-31.78 32.26-76.54 48.42-132.83 48.42-56.28 0-100.28-16.16-132.07-48.42-31.75-32.29-47.66-73.39-47.66-123.3z"/></g></svg>