<?xml version="1.0" standalone="no"?>
<!DOCTYPE svg PUBLIC "-//W3C//DTD SVG 20010904//EN"
 "http://www.w3.org/TR/2001/REC-SVG-20010904/DTD/svg10.dtd">
<svg version="1.0" xmlns="http://www.w3.org/2000/svg"
 width="512.000000pt" height="512.000000pt" viewBox="0 0 512.000000 512.000000"
 preserveAspectRatio="xMidYMid meet">
    <g transform="translate(0.000000,512.000000) scale(0.100000,-0.100000)"
fill="#000000" stroke="none">
        <path d="M1005 4349 c-581 -46 -860 -221 -954 -601 -44 -177 -46 -231 -46
-1103 0 -893 3 -945 55 -1150 119 -463 420 -672 1045 -725 90 -8 573 -10 1565
-7 1524 4 1486 3 1705 51 381 83 597 295 685 670 50 216 53 266 57 1036 6 934
-7 1132 -88 1340 -108 281 -319 409 -784 477 -97 15 -288 17 -1620 19 -830 1
-1559 -2 -1620 -7z m1169 -1050 c46 -13 1085 -550 1134 -586 81 -61 86 -179
10 -250 -12 -12 -270 -151 -573 -309 -469 -245 -557 -288 -600 -291 -68 -5
-122 26 -152 87 l-23 44 0 579 c0 406 3 591 11 618 14 47 54 86 105 104 48 17
41 17 88 4z"/>
    </g>
</svg>